<?xml version="1.0" encoding="utf-8"?>
<!-- Generator: Adobe Illustrator 17.1.0, SVG Export Plug-In . SVG Version: 6.00 Build 0)  -->
<!DOCTYPE svg PUBLIC "-//W3C//DTD SVG 1.1//EN" "http://www.w3.org/Graphics/SVG/1.1/DTD/svg11.dtd">
<svg version="1.1" id="Layer_1" xmlns="http://www.w3.org/2000/svg" xmlns:xlink="http://www.w3.org/1999/xlink" width="300" height="224"  x="0px" y="0px"
	 viewBox="0 0 640 392.2" enable-background="new 0 0 640 392.2" xml:space="preserve">
<g>
	<path fill="#FFFFFF" d="M0,76.7V50.2c17.5-3.4,27.7-12.4,35-20.1c3.8-4.7,6.8-9.8,9.4-14.9h25.2v284.2H27.7V76.7L0,76.7L0,76.7z"/>
	<path fill="#FFFFFF" d="M124.6,171.4v-35c17.5-1.3,25.6-4.7,29-12.8c2.1-3.8,2.6-9,2.6-14.9c0-6.4,0-14.1,0-22.6
		c0-8.1,0-17.1-1.7-24.3s-5.1-12.4-11.5-12.4c-5.1,0-8.1,2.6-9.8,9.8c-2.1,7.7-2.6,19.6-2.6,38.8h-41c0-15.8,0.4-37.5,7.3-55
		c6.8-17.1,19.6-30.3,46.1-30.3s39.7,13.7,46.9,27.7c6.8,14.5,7.3,29.9,7.3,33.3c0,42.2-7.3,62.3-20.1,75.1l-0.4,0.4
		c20.1,15.8,23.9,45.2,23.9,78.1c0,1.3,0,3.8-0.4,8.1c-0.4,8.1-2.6,20.1-6.8,32.4c-4.7,12.4-12.4,23.5-24.3,30.3
		c-6.4,3.4-13.7,5.1-22.6,5.1c-26.5,0-39.7-13.2-47.4-30.7c-7.3-17.1-8.1-38.8-8.1-54.6h41c0,18.8,1.3,31.1,3.4,38.4
		c2.6,7.7,6,10.2,10.7,10.2c6.4,0,10.2-5.1,11.5-11.9c1.7-6.8,1.7-15.8,1.7-23.9c0-9,0-17.1,0.4-24.3c0-14.1-2.6-23.5-11.5-29.4
		c-4.7-2.6-11.5-4.7-20.5-5.1L124.6,171.4L124.6,171.4z"/>
	<path fill="#FFFFFF" d="M40.2,377.9c0,2,0,4.8,2.8,4.8c2.4,0,3.2-1.2,3.2-4.8V370h10.7v5.6c0,6.3-1.2,10.3-3.6,13.1
		c-2.4,2.4-5.6,3.6-10.3,3.6c-4,0-7.1-1.2-9.9-3.6c-2.4-2.8-4-7.1-4-13.5v-25c0-6.3,1.6-10.7,4-13.5c2.4-2.8,6-3.6,9.9-3.6
		c4.4,0,7.9,0.8,10.3,3.6c2.4,2.4,3.6,6.7,3.6,13.1v4.4H46.2V347c0-3.6-0.8-4.8-3.2-4.8c-2.8,0-2.8,2.4-2.8,4.8V377.9z"/>
	<path fill="#FFFFFF" d="M105.7,344.6c-0.8-0.4-2-0.4-2.8-0.4c-1.6,0-3.6,0.4-5.6,1.6c-2,1.6-2.4,3.6-2.4,5.2V391H84.3v-57.5H95v6.3
		c0-0.8,0.8-2.4,2.4-4.4c1.6-1.6,4.4-3.2,7.9-3.2v12.3H105.7z"/>
	<path fill="#FFFFFF" d="M157.7,370.4v6.7c-0.4,5.6-2,9.5-6,12.7c-2,1.6-4.4,2.4-7.9,2.4c-6.7,0-10.3-4-11.9-7.5
		c-0.8-2.4-1.6-4.8-1.6-7.5v-29c0.4-5.6,2-9.9,6-12.7c1.6-1.6,4.4-2.4,7.9-2.4c6.7,0,10.3,4,11.9,7.5c0.8,2.4,1.6,4.8,1.6,7.1v16.7
		h-17.5v12.7c0,2.4,0.8,4,1.6,4.8c0.4,0.4,1.2,0.8,2.4,0.8c2,0,2.8-1.2,3.6-2.8c0.4-0.8,0.4-1.6,0.4-2.8v-6.3L157.7,370.4
		L157.7,370.4z M139.8,356.1h7.5v-7.9c0-2.4-0.4-4-1.6-5.2c-0.4-0.4-1.6-0.8-2.4-0.8c-2,0-2.8,1.6-3.6,2.8c-0.4,0.8-0.4,1.6-0.4,2.8
		v8.3H139.8z"/>
	<path fill="#FFFFFF" d="M201.3,347c0-0.8,0-2.4-0.4-3.6c-0.4-1.2-1.2-1.6-2.8-1.6c-1.6,0-2.4,1.6-2.8,3.2c0,0.8-0.4,1.6-0.4,2.8
		c0,0.8,0,2,0,2.8h-10.7v-2.4c0-4.4,1.6-7.9,4-10.7c2.4-2.8,6-4.4,10.3-4.4c3.6,0,6.7,1.6,9.1,3.6c2.4,2,4,5.6,4,9.5v35.3
		c0,5.2,0.4,7.5,0.8,9.9h-10.3c-0.8-1.2-0.8-4-0.8-4.8h-0.8c-0.4,0.8-1.6,2.4-2.8,3.6c-1.6,1.2-3.6,2-5.6,2c-1.6,0-3.6-0.4-5.2-2.8
		c-1.6-2-3.2-5.6-3.2-11.5c0-6.3,2-11.1,4.4-14.3c2.4-3.2,5.6-5.2,8.3-6.7c2.8-1.6,4.8-2.4,5.2-3.6V347H201.3z M201.3,363.2
		c-5.2,2.4-7.1,7.1-7.1,12.7c0,0.8,0,2,0.4,3.2c0.4,1.2,1.2,2.4,2.4,2.4c2.4,0,4.4-1.6,4.4-3.6L201.3,363.2L201.3,363.2z"/>
	<path fill="#FFFFFF" d="M252.5,319.2v14.3h7.1v9.5h-7.1v28.6c0,1.6,0,4,0.4,6c0.4,2,1.2,3.6,2.8,3.6c0.8,0,2,0,2.8-0.4
		c0.4,0,0.8,0,1.2-0.4v10.3c-0.4,0-1.2,0.4-1.6,0.4c-1.2,0.4-2.4,0.4-4,0.4c-6.3,0-9.1-3.2-10.7-7.1c-1.6-4-1.6-8.7-1.6-12.3v-29.4
		h-5.6v-9.1h5.6v-14.3H252.5L252.5,319.2z"/>
	<path fill="#FFFFFF" d="M286.7,313.6h10.7v10.7h-10.7V313.6z M286.7,391v-57.5h10.7V391H286.7z"/>
	<path fill="#FFFFFF" d="M332.7,391l-9.5-57.5h10.3l3.6,33.3l0.4,3.6h0.8l0.4-3.6l3.6-33.3h10.3L343,391H332.7z"/>
	<path fill="#FFFFFF" d="M404.9,370.4v6.7c-0.4,5.6-2,9.5-6,12.7c-2,1.6-4.4,2.4-7.9,2.4c-6.7,0-10.3-4-11.9-7.5
		c-0.8-2.4-1.6-4.8-1.6-7.5v-29c0.4-5.6,2-9.9,6-12.7c1.6-1.6,4.4-2.4,7.9-2.4c6.7,0,10.3,4,11.9,7.5c0.8,2.4,1.6,4.8,1.6,7.1v16.7
		h-17.5v12.7c0,2.4,0.8,4,1.6,4.8c0.4,0.4,1.2,0.8,2.4,0.8c2,0,2.8-1.2,3.6-2.8c0.4-0.8,0.4-1.6,0.4-2.8v-6.3L404.9,370.4
		L404.9,370.4z M387.4,356.1h7.5v-7.9c0-2.4-0.4-4-1.6-5.2c-0.4-0.4-1.6-0.8-2.4-0.8c-2,0-2.8,1.6-3.6,2.8c-0.4,0.8-0.4,1.6-0.4,2.8
		v8.3H387.4z"/>
</g>
<path fill="#26A7DF" d="M438.6,120.2l-1.3,1.7l3.4,2.6c-3.8,0.4-1.7,4.7-4.3,6.8c2.1,3.4,2.6-1.7,6,1.3c9,8.5-6,11.1,1.3,17.5
	l-2.1,5.1l4.7,0.4v2.1c-2.6-1.3-6.4,1.7-7.3,3.8l1.3,3.8l-4.3,3.4c3.4,0,6,1.7,5.1,4.7c-1.7,2.6-4.3,0-6.8,2.6
	c1.7,2.6-2.6,5.1,0,7.3h3.8l-1.3,4.7h-7.3c-0.4,2.6-1.3,8.1,3.8,7.3c-1.3,4.7-8.1,6.8-9.4,11.1c-3.4-1.3-6.4,2.1-8.1,4.7l4.3,4.7
	l-5.1,1.3l1.3,3.4c-2.1,1.7-6,3.4-7.3,0.4l0.4-0.4l-4.7-1.7c2.1,1.7,4.7,6.4,1.3,6.8c4.7,3.4,6.8-2.1,11.5-0.4c0,3.4-6.8,2.6-8.1,6
	l1.3,2.6c-3.8,3.4-6.8,3.4-10.7,6c-2.1-1.7-5.1-2.1-6,1.3l1.3,3.8c-2.1,1.3-2.1,3.4-1.3,4.7c-4.7,0-8.5,0-13.2,2.1
	c0.4,2.6,4.7,2.1,6.8,1.3l4.3,1.3l-3.8,4.3c-0.4-2.1-2.6-3.4-5.1-2.1c-0.4,8.1-15.4-3.8-9.4,8.1c2.6,5.1-9,2.6-6,8.1l-3.8,3.8
	c0.4,0.4,0,2.6-1.3,2.1l-1.3-3h0.4c-3.8-1.7-10.2-6-12.4-1.7c2.6-0.4,4.3,0,4.3,3.8c-4.3-1.3-2.1,6.8-7.3,6l-1.3,3.8
	c1.7-1.7-0.4,1.3-0.4,1.3c-0.4-0.4-1.7-2.6-0.4-3.4l-6.4,2.1v2.6l-4.3-1.7c2.1-0.4,6-2.6,3.8-3.8v-1.3c-4.3-2.6-8.5,4.7-11.1-0.4
	v5.1l2.6,3.4h-2.6l-5.1-6.4c-2.6,3.4-6.4,3.4-9,0c-2.1,2.6-3.8,6.4-1.7,9l-9.4,6.8c0-2.1,2.6-6,4.7-8.1c-1.3-1.7-5.1-3.4-7.3-1.7
	c1.7,5.1-4.7,1.3-6.4,6c-2.6,0-5.1,0-8.1-2.1c3.4-0.4,7.3-2.1,7.3-5.1c-2.6-1.7-5.1-0.4-8.1,0l-4.3,4.7c12.4,2.1-1.3,14.1-3.4,0
	c-4.3,1.7-1.7,8.5-8.1,7.3c1.7-2.6,2.1-7.3,1.3-10.7c-2.6,1.3-3.8-3.4-3.8-4.3l3.8-1.7l2.6,2.6c0,0,2.1-1.3,0-1.3
	c3.4,0.4,5.1,0.4,7.3-2.6c-4.7,0.4-9.4-2.1-14.5,0H262c-2.1-3.8-4.7-1.3-6.4,0.4c2.1,3.4,1.3,6.4-3.4,5.1c0.4-1.3,0.4-3.4,2.6-4.7
	c-1.3-2.1-3.4-1.3-4.7-0.4c-2.1-6.8-6.8-4.3-12.4-5.1l-4.3,3.4l6.8,0.4c1.7,4.3,4.7,8.1,9.4,9.4l1.7,3.4c3.4-1.7,7.3-4.7,10.7-1.7
	c-0.4,2.6-4.7,4.3-7.3,4.3c-3.4-6-6.8,2.1-9.4,1.3c4.3-9.4-6.8-9.4-4.3-2.6h-2.1c4.7-15.8-10.7-2.1-12.8-9.4l-7.3,2.6
	c3.4-3.4-4.3-5.1-3.4-9l-4.7-1.7c-2.1-6.8,15.4-3.8,16.6-3.8l-2.6,4.7l-2.1-1.3l-2.1,4.7l3.4,0.4l1.3-1.7l6,4.3l-1.3-8.1l6-6v-0.4
	c-6,0-12.8-3.8-17.5,0.4l-4.7-2.1l3.8-2.6l6.8,1.7c0-2.6-1.3-6.4,2.6-6.8l-3.8-4.7l-3.8,2.6l1.7,2.6c-3.4,3.8-10.2,2.1-12.4,6.8
	l0.4,4.3l-3.4,0.4c2.6-2.6-4.7-4.7-1.7-8.1l-1.7-1.7l1.3-2.6l3.8,0.4c1.7-2.1-1.7-4.7-3.4-5.1c-3.8-1.7-3.8,5.1-7.3,2.1l-1.3-6.4
	c-1.7-0.4-3.8,0-4.3,1.7l2.6-6.4c3.8,1.7,6.4,2.1,9,0c-2.1-2.6-6.4,0-7.3-4.3c-2.6,2.1-6.4-3.8-9,1.3l-3.4-1.3
	c0.4-3.8,6-1.7,8.1-4.7l-0.4-4.7l3.4-2.1c-2.1-2.6-5.1-2.6-7.3-1.3l-0.4,8.1c-4.3,0,0-3.8-3.8-4.7l2.6-2.1c-3.4-3.8,6-7.3,6.8-8.1
	c-0.4-4.7-6.8,0-8.5-4.7l5.1-0.4v-3.4c-3.8,1.7-6.4-4.7-11.1-2.6c-2.1-4.3-2.1-6.8,2.6-9.4c-7.3-2.1,1.7-7.3-1.3-9.4
	c4.3,0.4,0-11.5,6.8-6.4v-2.6c-9,2.6-3.8-7.3-6.8-11.1c0.4-2.6,1.3-6.8,4.3-7.3c3.4-2.1-1.3-5.1-3.4-6.4c3.8-2.6,11.1-0.4,13.2-6
	l-2.1-1.7l-6.4,2.1l-1.3-2.1l2.6-2.6l-2.6-0.4l3.4-4.7L186,139c6.8-3.8,6.4-6,0.4-10.7c1.7-2.6,9-2.1,6.4-6.8l-2.6-4.7
	c2.1-4.3,7.3,2.6,9-3.4c-1.7,0-3.4,0-2.1-2.6l6-1.7l1.7-8.1h4.7l-2.6,3.4c1.7,2.1,3.4,5.1,0,7.3l6-3.4l-1.3-6.4h0.4l-0.4-3.4
	l4.7-1.7l-4.3-3.4c-2.1,2.1-7.3,4.3-10.2,1.3c3.4-1.3-1.7-9.4,6-5.1c2.1-1.7,6.4-5.1,3.8-7.3l-1.7-4.3c2.1-0.4,8.5-0.4,7.3,2.6
	c4.7-4.3,16.6,4.7,15.4-7.3c-2.6-1.7-6.4-2.1-9.4-2.1l-1.7,2.6c-0.4-3.4-6.8-0.4-6.4-5.1c2.1,0,4.7-1.7,6.4-2.6l-1.7-3.8l4.3-0.4
	l-2.1,3.4l1.3,3.8c3.4-1.7,6-2.6,9.4-3.8l-4.7-8.1c0.4-7.3,16.6,0,10.2-7.3l-2.1-1.7l4.3-4.7l3.4,0.4c-0.4-3.8,3.4-4.7,6.4-3.4
	l2.6-4.3l-1.3-3.4c4.7-1.7,10.7,0.4,14.9-4.3c4.3,2.6,10.7,1.3,14.5-2.1l0.4-2.1c-2.6-3.8-8.1,0.4-11.1-0.4l0.4-2.6
	c3.4-2.1,8.1,0,11.5-1.7c0,3.4,8.1,5.1,1.7,6.8l-1.7,4.3l4.7,0.4c2.6,2.1,6,6.4,10.2,6.4c2.1,6.8,9,5.1,6.4-1.7h-1.7l1.7-7.3V31
	c6-2.6,10.7-7.3,17.1-4.7c2.1-4.7,9-2.6,11.1-8.1c-3.8-2.6-6.8,2.1-9-2.6c3.4-6.8,10.2,0,14.9,0c-1.3-6.8,6.4-4.7,8.1-9l2.6,1.3
	l3.4-2.6c1.3,14.5,10.2,0,14.9,6c2.1-2.1,6-3.8,8.5-4.3v4.3l-2.1,2.6c3.8,3.4,6.8-4.3,9.4-6c2.6,3.4,6,6,7.3,9
	c3.8,4.3,11.1-1.3,12.8,6.8l5.1-2.1c-4.7,11.1,13.2,0,9,10.2c0.4,3.8,7.3-1.3,5.1,4.3c-2.6,0-3.4,3.8-2.6,6.8l0.4,0.4l1.7-3.4
	l-0.4-0.4l3.8,0.4l1.3,3.4l-2.6,1.7l3.8,4.3c-2.1-1.3-6-1.3-7.3,1.3c1.7,2.6,5.1,2.6,7.3,1.7l1.7,2.1l4.7-1.3
	c-1.7,2.1,0,8.5-6.4,6.4l-1.3,2.6c4.7-2.1,7.3,9,11.1,1.7l4.7,7.3c-3.8,2.1-8.5-5.1-9,1.7c2.1,4.7,9,2.6,10.7,8.1
	c-3.4-2.6-6.4,2.6-8.5,2.6v1.7c3.4,2.1,5.1-4.7,9-0.4c-3.4,4.7,2.1,9.4-5.1,10.7c-3.8,6.4,7.3,9,6.4,12.4l-4.3-1.3l1.3,7.3
	c2.1-0.4,6-1.7,6.8,0.4C446.3,116,442.5,121.9,438.6,120.2z M177.5,186.4h2.1v2.1C177.5,188.9,177.1,187.2,177.5,186.4z
	 M183.9,202.1l-3.8,2.6c1.7,2.1,3.8,2.6,6,0L183.9,202.1z M188.2,176.5l-1.3,3.4l8.5-0.4L188.2,176.5z M186.9,205.6l3.8,2.1
	l-2.1,5.1l2.6,1.7c5.1-4.7-2.1-11.1,4.3-13.2L186.9,205.6z M410.9,109.1l2.6-2.1c0-3.8-6-20.9-7.3-20.9c0-3.4,0-6.8,2.6-8.1
	c0-3.4-3.4-4.7-5.1-4.7l1.7-6l-8.1-3.4c1.7-3.4-2.6-5.1,0-8.5l-4.7,0.4c-2.1-6.8-9.4-9-14.1-14.1v0.4c-4.7-1.3-9.4-1.3-13.2-3.4
	c-3.4-6.4-8.5,0-13.2-0.4c-4.7-6-10.2,4.7-14.5-1.3c-2.1,4.7-8.1,4.3-11.5,6.4c-4.7-2.6-9.4,2.1-14.1-0.4c0,1.3-0.4,5.1-3.4,4.7
	c-3.8-6.8-8.5,1.3-11.5-2.1v1.3c-4.3,6.8,6-5.1,6.8,1.7c1.3,4.7-4.3,6.4-8.1,5.1l3.4,4.7c-4.3,1.7-8.1,0-11.1-0.4
	c-2.6,2.1,0,4.3,2.6,5.1c-2.6,2.1-4.3,4.3-8.1,6l-1.7-2.6c-4.7,0-6-6-10.2-1.7c-2.6,7.3-12.4,8.5-17.1,14.5l-6,1.7
	c-1.3-3.8,2.6-4.7,4.7-6c2.6-1.7,1.3-3.8-0.4-5.1c1.7-0.4,1.7-4.3,0.4-5.1v2.6c-4.7,3.4-2.1,11.5-9,12.4c1.3,4.3,6.4,6.4,8.1,10.7
	c-3.8,1.3-8.1-1.3-10.7-3.4l4.3,6.4c-2.1,0.4-4.7,2.1-6.4,3.8l-1.3-1.7l-7.3,2.1c3.4-2.1,8.1-0.4,10.7,1.3l2.6,2.6l-7.3,1.3
	l-3.4,3.8c-6,1.3-1.7,8.1-6.4,8.5h0.4h2.1l2.6,2.1c-2.6,1.3-5.1,1.3-7.3,4.3l3.8,2.6v3.4l-4.7-0.4l-3.4-6.8c1.3,4.3-3.8,4.7-6,4.3
	v0.4l6.8,1.7l-1.3,6.8c-2.6,1.7-6,3.4-8.5,0l-1.7,8.1h2.6c4.3,5.1-4.7,4.7-6,8.5l-3.4-1.3l1.3,4.7c1.3-1.3,4.7-4.7,6.8-3.8l2.6,2.6
	c2.1,0,9-1.7,8.1,3.4c-3.8-0.4-8.1,2.6-11.5,0c-0.4,2.6-1.3,6.8,1.7,6.8c0.4,4.7-3.8,6-7.3,4.7l0.4,1.3l4.7-1.3l2.1,4.3l-4.3,2.6
	l2.1,5.1l-4.3-1.3v-4.3l-3.4-3.4c-0.4,4.7,0,8.1,2.6,12.4h-5.1l10.2,1.3c-1.7,12.8-26.9,1.7-22.2,11.5c4.7-2.1,10.2-2.6,14.9-2.1
	c-3.4,6,5.1,6,7.3,8.5l-1.7,2.1c-5.1-4.7-6.4,3.4-11.1,3.4c2.6,3.8,6-1.3,8.5,1.3l-2.1,4.7c3.4,0.4,6-1.7,8.1-4.3
	c3.8,2.6,0.4,7.3-1.7,9.4c-3.4,6.4-7.3-5.1-10.2,0.4l6.8,4.3l-6.8,1.7v1.3c3.8-0.4,5.1,8.5,9.4,2.6l1.3,4.7c2.1,1.7,8.1,0,8.1,4.3
	l-4.3,2.6l1.3,1.7c2.1-2.6,6.4-2.1,9,0l-6.8,5.1c-1.3-2.1-4.7-1.3-6-0.4c1.3,0.4,4.7,2.1,3.8,4.7h1.7l1.7-2.6
	c3.4,0.4,8.1,2.1,9.4,5.1h-1.7c2.1-2.6,8.5,1.3,11.1,2.6c2.6-2.6,4.3,3.8,7.3,1.7c2.6,0.4,4.3,4.7,6.4,6.8l6.8-1.3
	c1.3,8.1,21.8-3.4,26.5,1.7c17.1-7.3,32.9-17.1,49.9-23.9c11.5-6.4,19.2-18.8,31.6-23c8.5-8.1,13.2-19.6,24.3-26
	c-6-4.3,4.7-9,6-11.5c-1.3-8.5,6.8-12.4,8.5-20.1c4.3,0-1.7-4.7,2.6-6.4c3.8-9,1.7-20.1,4.7-30.3h0.4c-3.8-4.3,1.7-7.3,2.1-12.4
	L410.9,109.1z M193.7,217.5c1.3,2.1-1.3,3.4-2.6,3.4c1.7,0.4,5.1,1.7,6.4-1.7L193.7,217.5z M197.5,104l0.4-2.1l0.4,0.4v1.7H197.5z
	 M202.2,161.6l3.8,1.3l1.3-2.6C205.7,156.9,203.1,160.3,202.2,161.6z M207.4,84.8l-3.4-1.7c1.3-1.3,2.1-3.4,4.3-2.6L207.4,84.8z
	 M207.4,195.7c0-2.6,2.6-4.3,4.7-4.7C212.1,194.5,209.9,194.5,207.4,195.7z M210.3,208.1V206h1.7v2.1H210.3z M212.5,197.4l-1.7-1.7
	l1.3-0.4l1.3,0.4L212.5,197.4z M214.6,225.6l-2.6-2.1c1.3-2.6,3.4-2.6,4.7-2.1C217.2,223.9,215.9,224.8,214.6,225.6z M212.1,264v0.4
	l5.1-2.6C217.2,258,212.5,262.3,212.1,264z M212.5,139.4v-2.6l2.6,0.4C215,139,214.6,139.4,212.5,139.4z M212.9,231.6
	c0-2.1,3.8-2.6,4.3-0.4v2.1L212.9,231.6z M215.9,113.8l-1.3,3.8l6-1.7L215.9,113.8z M218.9,89.5l-3.8-3.4v4.7h5.1
	C221.4,89.9,219.7,89.1,218.9,89.5z M215.9,148.4l1.7-2.1l0.4,2.1H215.9z M217.2,143.3V139h1.7C220.6,139.4,218,142,217.2,143.3z
	 M218.9,78.4l1.7-3.4l1.3,2.1L218.9,78.4z M220.6,96.8c1.3,3.8,3.8,5.1,6.8,6.8l1.3-1.7C227.4,99.7,224.4,95.9,220.6,96.8z
	 M220.6,108.7l4.3,4.3l2.1-4.7L220.6,108.7z M233.4,294.7c-1.3-1.7,2.1-2.1,2.6-0.4L233.4,294.7z M238.5,63c2.1,0.4,6.4,3.4,7.3,0
	C245.3,58.8,240.6,60.9,238.5,63z M245.3,44.7l-0.4,3.4l2.1,3.4l1.3-3.8l2.1,0.4C250.9,45.6,247,44.7,245.3,44.7z M256.9,38.3
	c-1.3,1.7-3.8,4.7-4.7,3.8l0.4,2.1l4.7-1.3L256.9,38.3z M252.6,278.1l0.4,3.4l2.1-1.7C255.6,278.9,253,278.1,252.6,278.1z
	 M261.5,30.6c-1.7-2.1-3.8-2.1-4.7-1.3v-1.3c2.6,2.6,3.4-3.8,6.8-1.7L261.5,30.6z M259.8,302c0-1.3-0.4-0.4,1.7-1.3h0.4v1.3H259.8z
	 M268.4,33.2l-8.5,2.6c1.7,5.1,6,2.6,9.4,3.8L268.4,33.2z M261.5,61.3c2.1-1.7,4.3-0.4,6,0C265.8,60.9,261.5,57.1,261.5,61.3z
	 M278.6,52c-1.3-0.4-4.7-2.1-4.7,1.3h0.4c1.7,1.3,4.3,0,4.7-1.7L278.6,52z M292.3,285.3l0.4,2.6l2.1-2.6H292.3z M294.4,33.6l1.7-3.4
	c1.7,0,4.3,1.3,3.4,2.6L294.4,33.6z M297.4,67.7c-0.4-1.7,2.1-4.3,2.1,0H297.4z M302.9,58.8h-0.4v-2.1c0,0,0.4,0.4,1.7,0
	C303.8,57.1,302.9,58.8,302.9,58.8z M307.6,56.6l-2.6-1.7l4.7-1.3L307.6,56.6z M309.8,33.2l-3.4,2.6c2.1,2.1,5.1,4.3,9,3.8l1.3-3.8
	C315.7,35.7,311,36.2,309.8,33.2z M307.6,20.8c4.3,0,9,0,13.2-0.4v1.3C316.2,20.4,311.9,26.8,307.6,20.8z M316.6,296.4l-4.7-4.7
	c2.1-3.4,4.7,1.7,6,3.4L316.6,296.4z M318.3,16.1c0-0.4-1.7-3.8,1.3-3.8c1.3,1.3,2.1,2.1,1.7,3.4L318.3,16.1z M326,264.4h-4.3
	l4.3,1.7V264.4z M332.4,9.7h-2.1V8.4h2.6L332.4,9.7z M334.9,273c-1.7,0-2.6,0.4-3.8,2.6l3.8,1.3V273z M363.5,264l-4.3-6
	c-3.8,2.1-10.7-0.4-13.2,6l1.3,2.1c9-12.4,11.1,0.4,16.6,0.4L363.5,264L363.5,264z M349,275.5l1.7,2.1L349,275.5z M353.3,25.5h-2.1
	l2.1,2.1V25.5z M355.4,279.8l2.6-1.3v2.6L355.4,279.8z M358.8,9.3l-2.1-1.7l4.3-3.8L358.8,9.3z M361.8,249.5
	c-1.3,2.6,1.7,4.3-0.4,6.4l5.1-3.4L361.8,249.5z M386.1,226.9h-3.4l1.7,4.7h2.6L386.1,226.9z M396.4,229.4l7.3-2.6
	C401.5,225.6,395.9,223.9,396.4,229.4z M398.9,245.7l-2.1-1.7l3.4,0.4L398.9,245.7z M416.9,141.6l5.1,3.8l2.6-3.4
	C421.5,141.1,419.4,143.3,416.9,141.6z M419.8,92.1l2.1,3.8l-2.6,2.1v1.7l4.3-5.1L419.8,92.1z M422.4,212.4H422V209l1.7,0.4
	L422.4,212.4z M443.7,166.7H442V165l2.1,0.4L443.7,166.7z"/>
<path fill="#26A7DF" d="M428.8,363.8c-0.4,1.7,1.7,5.1,4.3,7.3l-9.4-1.7l2.6-3.8l-9-2.6l1.7-3.4c3.4,2.6,5.1-3.4,8.5,0l4.7,1.3
	l1.3-5.1l2.6,2.6C433.9,360,433.9,365.6,428.8,363.8z M626.8,47.7c-2.6-0.4-4.7,1.7-6,3.8v3.4l-2.6-1.7c-1.3,1.7-4.7,6-7.3,3.8
	c-11.5-14.5-49.9,4.3-61.9-3.8c-1.7,3.4-6,3.8-8.5,4.3l-3.4-0.4c-2.1,4.7-10.2-1.7-14.1,2.6c-10.7-5.1-11.5,6.4-10.7,11.1l-6,1.3
	l-0.4-0.4c2.1,3.8-5.1,6.8-0.4,11.5h-3.4c2.1,2.1,3.4,6.4,0,7.3c-1.7-0.4-4.7-2.1-5.1,1.3c7.3,6-6.8,7.3-3.4,13.2l-3.4-2.1l1.3-1.7
	c-4.7,0-4.3,8.1-10.7,6l1.7,2.1c2.6-0.4,14.1-5.1,9.4,1.7c0.4,0,1.7,2.6,0.4,2.6c-2.1-4.7-9.4,0-11.5-6l-1.3,4.7
	c2.1,3.8,5.1-2.6,7.3,1.3l0.4,5.1c2.1,2.6,10.7,1.7,8.5,6.8c-1.7,2.1-6,2.6-8.5,2.6c-2.6-1.3-1.3-6-4.7-7.3l2.1-2.1l-4.3-0.4v-1.7
	l-5.1,2.1c0.4,2.1,4.3,6.4,6.4,4.7c0,2.1-2.1,1.7-3.8,0c-10.2-1.3-10.2,7.3,0,6.8c1.7-2.6,4.3-2.1,6.4,0c2.1,2.6-3.8,4.7-6,4.7
	c-2.6-2.1-6,0-9.4,1.7l1.7,2.1l4.3-1.3l2.1,4.3l-4.3,1.7v2.1l4.3,1.3c-3.4,4.7,3.8,2.6,6,4.7l2.6-0.4l-3.4,6.4l-3.8-1.7l-0.4,4.3
	c2.6,1.3,7.3,2.1,10.7,0l3.8-6.4l1.3,2.1l2.6-1.7l-8.5-3.8l2.6-3.4l-2.6-2.6c2.6-6,10.7,4.3,9.4-4.7h1.7c2.6,8.5,2.6-4.7,12.4,1.7
	l1.3,2.6l-4.3,4.7c3.4-2.1,8.1,0.4,12.4,0l-4.7-6.8c2.1-2.6-3.4-2.6-2.1-4.7l4.3-2.1l-0.4-2.6h1.3c2.1,1.7,2.1,4.3,0,5.1
	c6,0,0,6.8,6.8,6c2.1-2.1,6.4-1.7,8.5-4.3l-1.7-2.6c6.8,6.8,11.5-4.7,11.5,3.4l4.7,2.1l1.3-4.3l-4.7-0.4c2.1-1.7,4.3-4.3,1.3-5.1
	c2.6-1.3,3.8-2.1,2.6-4.7c7.3-1.3,3.4,8.5,11.5,6.8c2.6,3.8,6.8-4.3,12.4-1.3c0.4,2.6,4.3,3.8,6.4,3.8c-3.8,6,6,0.4,3.4,8.1
	c2.6,4.3,6,0,9,2.1c1.7,4.3-10.2,2.6-4.7,8.5h6.4c3.4,2.1-2.1,5.1,0.4,7.3c4.3,0.4,8.1,3.4,11.5,2.6c-0.4,3.8-7.3,6.4-3.8,11.5
	l6,0.4c1.3,2.6-4.3,4.3-6,4.3l1.7,3.4l-3.4,4.3c3.4,2.1,8.1-0.4,9.4,2.6c-4.7-0.4-1.3,6-4.7,6.4l1.3,2.6l4.3-1.7l1.7,6.4l-8.5,0.4
	l4.3,2.1l-4.3,6c2.1,0.4,4.3,3.8,4.7,6l-7.3,3.8l3.4,5.1c-5.1,0.4-3.8,9.4-9.4,11.1c3.8,3.4,7.3-2.6,9.4,2.1h3.8
	c0.4,2.6-6,0.4-4.7,4.7l-4.3-2.1l-2.1,2.1l4.3,4.7l-4.7,2.1l2.1,1.3c-3.8,3.4-6.4,6.4-10.7,7.3l-1.3,2.1l1.3,1.7l-2.6,0.4
	c0-0.4-2.1-0.4-2.1,0c1.7,4.3,9.4,4.7,4.3,9c-9.4-4.3-4.3,7.3-10.2,7.3c2.6,8.5-10.2,4.3-6.8,11.5c-2.1,1.7-6,2.1-8.1,2.1v7.3
	l-8.5,2.1c-1.3,4.3,2.6,7.3-2.1,10.2l-1.3,3.4c-2.6,0.4-3.8-1.7-3.8-3.4l-4.7,2.1l0.4,4.7c-2.1,3.4-6.4,3.4-8.1,1.3
	c0.4,1.3,0.4,4.7-1.7,4.7l-0.4-4.3l-6,1.7c1.7,2.6,3.8,5.1,6.8,5.1c-0.4,2.1-1.3,3.8,1.3,4.7c-4.3,1.3-9.4,0-13.2,3.4
	c-5.1,0-4.3-4.7-4.7-8.5c-0.4,4.3-4.3,8.1-7.3,8.5c2.1,2.1,6,2.1,8.1,1.7c-0.4,2.1-1.3,5.1-3.8,6c-3.4-2.1-9,6.8-10.7,8.5l-3.4-2.1
	l0.4-1.7l-5.1,3.4l3.4,2.6c0,2.6-4.7,4.7-6.8,5.1l-1.3-4.7l1.3-0.4h-4.3c-0.4,1.3-3.4,4.7-4.7,2.6c1.3-4.7-6,0-3.8-4.7l-3.8-1.7
	l-0.4-0.4l2.6-1.7l1.7,1.7l1.7-2.6c-2.6,0-6,0-8.1-2.6c2.1,8.5-8.5,0.4-6.4,9.4c2.1-2.1,6.4-3.8,6.8,0.4c-2.1-0.4-6.8-0.4-6.8,2.1
	l-3.4,4.3l5.1-1.3c0.4-4.7,4.3-1.3,6.4-3.8l3.4,3.4c-4.7,2.1-3.4,6.8-6.8,9.4l-2.6-2.6l-1.3,0.4l-1.3-1.3l3.8-2.1
	c-3.8-1.7-6.8-2.1-10.7,0l2.1,2.1l-3.4,0.4V366l-5.1,2.6v0.4h-1.7c0-4.3,2.6-5.1-0.4-9l-6,2.6l-1.7,1.7c3.8,4.3,7.3,9.4,13.2,7.3
	c1.3,2.6-1.7,3.8-3.4,3.8c-4.3-6-8.5,6.8-9.4,0.4v-2.1l2.6-2.6c-3.4-2.6-10.2,3.4-9.4-2.1l6.8-4.3l-4.7-3.4
	c1.3-3.8,1.3-10.7,7.3-9.4c-1.7,2.1-3.4,6.8,0,7.3c0.4-2.6,2.6-6.4,2.6-9.4l2.1-1.7l-2.1-3.4c6,2.1,7.3-6.8,11.5-6l0.4,1.3
	c2.6-2.1,7.3-3.8,6.8-7.3c2.1-2.1,6.4-2.6,7.3,0c1.7-2.1,3.4-4.3,1.3-4.7c-1.3,1.3-4.3,1.3-2.1,0c0.4-1.3,2.6,0,2.6,0.4
	c-0.4-9,10.2,0,7.3-7.3c1.7-1.7,2.6,0.4,2.6,1.3c1.7-4.7,8.5-5.1,9-10.7c4.7-6,11.5-9.4,20.1-6.8l0.4-1.3c-1.7-2.6-5.1,0-6.4-3.8
	c6-1.7,10.7-4.3,14.1-6.8c-2.1-6.4,8.5-6.8,9-13.2l3.4,0.4l1.7-2.6c0-6,11.5-3.4,8.1-10.7c2.1-2.1,6,4.7,8.1-1.3l-3.4-0.4
	c1.3-4.3,11.1-23.5,14.9-17.1c-1.3-1.7,0-3.8,1.7-4.7l2.1,2.6c-0.4,0-0.4,1.7,0,1.7l4.3-4.7c-2.1,0-5.1,0-6.4-1.7
	c1.7-2.6,3.8-6.4,6.8-7.3l-3.4-3.8c2.1-3.4,8.1-2.1,8.1-6c3.4-1.7,1.7-4.7,0-6.8c11.5-16.6-1.3-6,15.8-9.4l-2.1-3.4
	c-3.4,0-6,0-9.4,1.3c-5.1-4.3,4.7-6,1.7-10.7l2.1-1.3c-3.8-1.3-9-3.8-4.3-6.4c-0.4-5.1-9-9-3.8-14.5l-3.4-3.4l3.4-3.8v1.3l2.1-2.1
	c-3.4-2.1-6.8,0-10.7-1.3c2.6-6-3.4-7.3-8.1-7.3c-4.7,1.7-8.1,1.7-11.5,0l-6-5.1c-2.6,1.3-2.6,5.1-2.1,7.3
	c-3.8,4.7-9.4,2.6-14.5,6.4h-4.3v0.4h-2.1l1.7-1.7l-2.1-6l-2.1-1.7c-4.7,1.7,2.1,6.8-2.6,7.3c0.4-1.3-3.4-2.6-3.4-0.4
	c0,2.6,6,0.4,3.8,5.1c-2.1,2.1-4.7-3.8-6.8-0.4l-5.1-2.1c-2.1,2.6-3.4,3.8-0.4,6c-1.7,1.3-6,5.1-8.5,2.6l2.6-4.3
	c-3.8,0.4-7.3-1.7-10.7,1.7l2.1,6.4h-3.4v-0.4c-5.1,2.1-6-0.4-6.8-5.1c-4.7,0,2.1,8.5-5.1,8.1l-2.6,4.3l6.4-1.7l-2.1,4.3
	c-4.3-0.4-6.4,5.1-10.7,4.3c-0.4,2.6-2.1,6-4.7,7.3c-1.3-2.6-3.4-3.4-4.7-0.4l-1.3,2.6c-3.8,2.1-8.5,2.6-13.2,0.4l4.3-2.6l-6.8-4.3
	c0,2.6,0,6.8-3.4,6c-3.4-4.3-6-8.5-6.4-13.2c1.7-0.4,6.4-2.6,4.7-4.7c-4.3-2.1,0-6.8-3.4-9.4c1.7-3.4,4.7-6.8,5.1-11.5l4.7-1.3
	l-4.7-2.1c5.1-3.8,6.4-6,2.6-10.7c4.3-2.1,2.1-14.1,9.4-7.3c3.8-6.4,1.7-11.5,9-14.1c-1.7-0.4-2.6-2.1-1.7-3.4l-5.1-1.7v-2.1
	l4.3-0.4l-0.4-2.6c3.8,0.4,3.8-4.7,8.1-4.7l-2.1-1.7c-0.4-1.3-1.7,1.7-2.1,0.4c-1.3-5.1,12.4-5.1,4.3-10.7c6.8-1.7-1.7-14.5,9-11.5
	l-2.1-2.6l2.1-2.1l-2.1-4.7l5.1-0.4c-2.1-2.1-3.4-6.8,0.4-8.5c6.4,1.7,0-4.3,3.4-5.1c-3.4-3.8,1.7-8.5,3.8-10.7l-0.4-2.1h5.1
	l1.3-8.1l6-5.1l-0.4-3.8h-0.4v-2.6c2.6,4.7,6-2.6,9,0.4l6-6l-2.1-2.1l2.1-1.3c1.7,2.1,3.8,6,6.8,3.4l2.1,1.7l-3.4,3.4
	c6,6.8,7.3-8.1,12.8-1.7l6.4-4.3c0,4.7,5.1,4.3,8.1,2.6l3.4-4.7c4.3,0,8.1-4.3,12.8-3.4l-2.1,3.4c4.7,8.5,9-3.4,14.5-0.4l0.4-3.8
	c2.1-1.3,3.8,2.1,3.8,4.3l-2.1,2.1l3.4,1.7c1.7-1.7,2.1-4.3,2.1-7.3l-2.1-1.7c1.7-1.3,4.7-3.4,6.4-0.4l-1.7,2.1l9,0.4
	c3.8-6,9.4,0,14.5-3.4v1.3c-3.4,0-6,1.7-9.4,3.4c6,1.3,11.1,1.3,15.8,1.7l3.8-2.6l4.3,6.8l-3.8,2.6c3.8,2.6,13.2,0,14.9,5.1
	c1.7,0,1.7,3.4,0,3.4c-0.4-3.8-4.7-3.4-6.8-2.1c0.4,2.6,4.7,0,5.1,3.8l-1.7,1.3c2.6,2.6,3.8-2.6,6-1.3
	C631.9,43.4,628.9,46.8,626.8,47.7z M432.2,378.8l1.3-2.1c2.1,0,4.7,1.3,6,2.6v2.1C436.5,381.3,433.9,381.3,432.2,378.8z
	 M442.5,160.8l4.7,1.7C445.9,161.6,443.7,158.6,442.5,160.8z M443.7,351.5v-3.4c1.7,0,2.1,0.4,3.4,1.3v2.1H443.7z M445.9,137.3v-2.6
	c1.7,0,2.1,0.4,2.1,2.1L445.9,137.3z M450.6,193.2l-3.8,7.3l3.8-0.4l-0.4-1.3c-0.4-2.6,2.1-3.8,3.8-4.7L450.6,193.2z M450.6,358.7
	c3.4,2.1,7.3,4.3,11.1,0C458.2,357.9,454,357.9,450.6,358.7z M457,150.1c-1.7,0-3.4,1.3-3.4,3.4h3.4
	C456.5,152.6,456.5,150.5,457,150.1z M465.9,160.8l1.3-0.4l-5.1-2.1c-4.3,7.3,9.4,4.3,12.8,9l1.7-1.7
	C474,162.5,469.8,162.5,465.9,160.8z M462.1,138.6l2.1,0.4c1.3,0,1.3-1.7,1.3-2.1C463.8,137.3,462.5,136.4,462.1,138.6z M465.1,351
	l-1.3,1.3l1.3,1.3C465.9,352.3,465.9,351,465.1,351z M471,139l-1.3,2.1c-0.4,0.4,0,2.1,1.7,1.3C469.8,141.6,471.9,139.4,471,139z
	 M478.7,342.1l-3.4,1.7c1.3,5.1,7.3,0,10.2,4.7c-2.6,3.4-2.1,3.8,2.1,5.1l1.7-6.4C487.3,344.2,480.9,346.4,478.7,342.1z M480.9,89.5
	l-1.7-1.7l-1.7,1.7v0.4l4.7-0.4H480.9z M478.7,184.6l1.7-2.6c0.4,0,2.6,0.4,2.1,2.1L478.7,184.6z M483.4,94.6
	c0.4,1.3,3.4,2.1,4.7,1.3C487.3,94.6,485.1,94.6,483.4,94.6z M486.4,136.9l-0.4-1.7l1.7-2.6l1.3,2.6L486.4,136.9z M491.1,176.1
	l-1.7-1.7c0-0.4,1.7-2.1,2.6-0.4L491.1,176.1z M494.1,340h3.8l2.1-6L494.1,340z M494.9,28.5v-2.1c2.6,0.4,9,0,8.1,4.3L494.9,28.5z
	 M494.9,325l2.1,3.4l2.1-0.4C499.2,325.4,497.1,324.6,494.9,325z M497.9,149.2l6.4,4.3l-1.7-6.4l3.8-0.4
	C503.9,146.2,499.6,146.2,497.9,149.2z M514.6,310.5l-3.8-1.7c0.4,2.1,1.3,4.3-1.3,4.7h-2.6l-2.6,2.6l2.1,2.1c4.7,0,4.3-7.3,9-8.1
	h-0.9V310.5z M506.9,320.8l-0.4,2.6c2.1-0.4,3.4-0.4,3.4-3.4C509,320.8,506.9,322.5,506.9,320.8z M511.6,325.4v4.3l4.7-3.4
	L511.6,325.4z M521,27.6l-5.1-2.1c-1.7-3.4,5.1-1.3,6,0L521,27.6z M527.8,139l-1.7-2.1l3.8-4.3c-2.1-2.1-8.5,1.3-7.3-2.6h8.1
	C527.8,132.2,534.2,136.9,527.8,139z M527.4,27.6h-2.6v-3.4l3.4,1.3L527.4,27.6z M527.4,160.3l2.1,2.1l3.8-1.7L527.4,160.3z
	 M535,131.7l8.1-1.7C544.4,134.7,538,133.4,535,131.7z M540.6,279.8l2.6,1.7l3.4-2.6C545.3,276.8,542.3,277.7,540.6,279.8z
	 M544.4,31l3.4-1.7C546.6,27.6,544.9,29.3,544.4,31z M545.3,164.6v-2.1l1.7,0.4C547,164.6,545.3,164.6,545.3,164.6z M570,137.3
	c-3.4,9-9-2.6-13.2,4.3l-4.3-4.3l-1.3,6.4c2.6,2.6,6.8-0.4,8.1-4.3c4.7,0,9.4,4.7,11.1,9l-2.1,1.7l0.4,0.4l4.7-1.7l-1.3-3.8
	c1.3,1.3,3.4,0,4.7-1.7L570,137.3z M555.9,310.5c0.4-2.1,2.6-3.8,3.4-1.7v2.6L555.9,310.5z M557.2,276.8c2.1,1.7,4.3-0.4,4.7-2.6
	C560.6,273.8,558.1,276.4,557.2,276.8z M558.5,162.9c0-2.6,4.7-1.3,4.7,0H558.5z M561.9,131.7h-0.4V130h1.7L561.9,131.7z
	 M568.3,264.9l2.1,2.1h0.4C572.6,264.9,570,264.9,568.3,264.9z M575.6,231.6l-0.4,3.8h6.4L575.6,231.6z M579.8,160.8
	c2.1-0.4,6.8-0.4,7.3,1.7C588.4,159.9,581.5,158.6,579.8,160.8z M580.7,145.4v1.3l1.7-1.3H580.7z M582.4,223.9l-0.4,0.4v1.3l2.1-1.3
	L582.4,223.9z M582.4,246.9l4.3,0.4c-1.7-2.6,4.3-2.6,4.7-2.6C588.8,242.2,584.5,242.7,582.4,246.9z M584.5,29.3l0.4,3.8
	c1.3-0.4,1.7-2.1,1.7-3.8H584.5z M588.8,194.5c-0.4,1.3-1.7,1.3,0,1.7l2.1-0.4L588.8,194.5z M588.4,143.3v-1.7
	c1.7-0.4,2.6,0.4,0.4,1.7H588.4z M590.9,225.6l0.4,2.6l1.7-2.6H590.9z M591.4,266.1l-0.4-2.1l1.3,0.4v0.4L591.4,266.1z M591.4,269.1
	l0.4-2.1c1.3,0,1.7,1.3,1.7,2.1H591.4z M593.9,264.4c0-2.6,2.6-2.1,3.4-0.4C596.5,264.4,594.3,264.9,593.9,264.4z M596.5,153.9
	c-0.4-2.6,4.3-6,4.3,1.3L596.5,153.9z M596.5,148.4v-2.1l1.7,0.4v1.7H596.5z M596.9,214.9v1.7h3.4L596.9,214.9z M601.6,237.6
	l-1.7-1.7c1.7-1.7,4.7-1.7,5.1,0L601.6,237.6z M605.9,187.2c-1.3,0,1.7-3.4,2.1-1.3v1.3H605.9z M607.6,229c3.4-3.4,2.6,2.6,2.6,5.1
	L607.6,229z M610.1,178.2l0.4-2.1c1.3,0,3.4,0.4,2.6,2.1H610.1z M624.2,61.3l-1.7-1.7l-2.6,1.7l-1.7-2.6c2.6-2.1,6,0.4,7.3,2.1
	L624.2,61.3z M628.9,49c4.7,0.4,3.4,2.6,0,5.1C627.2,52.8,625.5,49.8,628.9,49z"/>
</svg>
