<?xml version="1.0" encoding="utf-8"?>
<!-- Generator: Adobe Illustrator 19.1.0, SVG Export Plug-In . SVG Version: 6.00 Build 0)  -->
<svg version="1.1" id="ART" xmlns="http://www.w3.org/2000/svg" xmlns:xlink="http://www.w3.org/1999/xlink" x="0px" y="0px"
	 viewBox="0 0 381 381" style="enable-background:new 0 0 381 381;" xml:space="preserve">
<style type="text/css">
	.st0{fill:url(#SVGID_1_);}
	.st1{fill:url(#SVGID_2_);}
	.st2{fill:url(#SVGID_3_);}
	.st3{fill:url(#SVGID_4_);}
	.st4{fill:url(#SVGID_5_);}
	.st5{fill:url(#SVGID_6_);}
	.st6{fill:url(#SVGID_7_);}
	.st7{fill:url(#SVGID_8_);}
	.st8{fill:url(#SVGID_9_);}
	.st9{fill:url(#SVGID_10_);}
	.st10{fill:url(#SVGID_11_);}
	.st11{fill:url(#SVGID_12_);}
	.st12{fill:url(#SVGID_13_);}
	.st13{fill:url(#SVGID_14_);}
	.st14{fill:url(#SVGID_15_);}
	.st15{fill:url(#SVGID_16_);}
	.st16{fill:url(#SVGID_17_);}
	.st17{fill:url(#SVGID_18_);}
	.st18{fill:url(#SVGID_19_);}
	.st19{fill:url(#SVGID_20_);}
	.st20{fill:url(#SVGID_21_);}
	.st21{fill:url(#SVGID_22_);}
	.st22{fill:url(#SVGID_23_);}
	.st23{fill:url(#SVGID_24_);}
	.st24{fill:url(#SVGID_25_);}
	.st25{fill:url(#SVGID_26_);}
	.st26{fill:url(#SVGID_27_);}
	.st27{fill:url(#SVGID_28_);}
</style>
<g>
	<g>
		<linearGradient id="SVGID_1_" gradientUnits="userSpaceOnUse" x1="107.4047" y1="50.9178" x2="240.3412" y2="329.8228">
			<stop  offset="0" style="stop-color:#816829"/>
			<stop  offset="0.2077" style="stop-color:#C5A231"/>
			<stop  offset="0.4393" style="stop-color:#8A702B"/>
			<stop  offset="0.757" style="stop-color:#F0E373"/>
			<stop  offset="0.92" style="stop-color:#644D1F"/>
		</linearGradient>
		<path class="st0" d="M272.7,123.8c-81-105.1-82-120.2-82-120.2s-1.1,15.1-82,120.2c-80.9,105.1-45.8,134.8-24,153.5
			c25.7,22,92.6,55.4,105.9,100.2c13.3-44.7,82-77.6,105.9-100.2C317.4,257.7,353.6,228.9,272.7,123.8z M257.9,270.6
			c-66.3,86.1-67.2,98.5-67.2,98.5s-0.9-12.4-67.2-98.5c-66.3-86.1-37.5-110.5-19.6-125.8c21.1-18.1,75.9-45.4,86.8-82.1
			c10.9,36.6,67.2,63.6,86.8,82.1C294.5,160.8,324.2,184.5,257.9,270.6z"/>
	</g>
	<g>
		<g>
			<g>
				<linearGradient id="SVGID_2_" gradientUnits="userSpaceOnUse" x1="97.5568" y1="55.6148" x2="230.4894" y2="334.5115">
					<stop  offset="0" style="stop-color:#816829"/>
					<stop  offset="0.2077" style="stop-color:#C5A231"/>
					<stop  offset="0.4393" style="stop-color:#8A702B"/>
					<stop  offset="0.757" style="stop-color:#F0E373"/>
					<stop  offset="0.92" style="stop-color:#644D1F"/>
				</linearGradient>
				<path class="st1" d="M131.5,176.2c0-3,1.3-6.4,3.4-8.8c1.3-1.6,2-2.1,4.1-3.2c-0.1,0.9-0.1,1.2-0.1,1.7c0,5.1,3.5,8.7,8.2,8.7
					c4.1,0,7.3-3,7.3-6.8c0-3.7-2.4-5.5-9-6.6c-6.1-1.1-7.3-1.5-9.5-3.6c-1.7-1.6-2.5-3.4-2.5-5.3c0-5.2,5.4-8.9,12.9-8.9
					c2.2,0,4,0.2,7.8,1c2.2,0.5,3.3,0.6,4.1,0.6c1.8,0,3-0.4,4.7-1.7c-0.3,4.8-2.3,8-5.2,8c-1.3,0-2.2-0.6-3.6-2.2
					c-2.3-2.7-3.7-3.5-6.4-3.5c-3.2,0-5.3,1.6-5.3,3.9c0,1.3,0.8,2.6,2,3.3c0.9,0.5,1.9,1,3.2,1.2c0.7,0.2,2.3,0.5,4.7,1.1
					c4.1,0.9,6.1,1.8,8,3.3c2.2,1.9,3.4,4.6,3.4,7.6c0,6.6-6.1,10.9-15.4,10.9c-2.9,0-6-0.4-9.2-1.1c-0.9-0.2-1.6-0.3-2-0.4
					c-0.6-0.1-1.2-0.2-1.7-0.2c-1.6,0-2.8,0.6-4,1.7L131.5,176.2z"/>
				<linearGradient id="SVGID_3_" gradientUnits="userSpaceOnUse" x1="116.99" y1="46.3456" x2="249.9303" y2="325.2587">
					<stop  offset="0" style="stop-color:#816829"/>
					<stop  offset="0.2077" style="stop-color:#C5A231"/>
					<stop  offset="0.4393" style="stop-color:#8A702B"/>
					<stop  offset="0.757" style="stop-color:#F0E373"/>
					<stop  offset="0.92" style="stop-color:#644D1F"/>
				</linearGradient>
				<path class="st2" d="M167.4,174.9c1.4-0.2,2-1,2-2.7v-0.7v-11.7v-0.5c0-1.2-0.6-2-2-2.7c2.3-1.6,5.7-2.7,8.3-2.7
					c0.1,0,0.4,0,0.7,0.1v17.4v0.7c0,1.7,0.5,2.4,2,2.8v1.1h-11V174.9z M168.7,148.1c0-2.1,1.8-3.9,3.8-3.9c2.2,0,3.8,1.7,3.8,3.8
					c0,2.2-1.7,3.9-3.8,3.9C170.5,151.9,168.7,150.2,168.7,148.1z"/>
				<linearGradient id="SVGID_4_" gradientUnits="userSpaceOnUse" x1="132.779" y1="38.8288" x2="265.7112" y2="317.7248">
					<stop  offset="0" style="stop-color:#816829"/>
					<stop  offset="0.2077" style="stop-color:#C5A231"/>
					<stop  offset="0.4393" style="stop-color:#8A702B"/>
					<stop  offset="0.757" style="stop-color:#F0E373"/>
					<stop  offset="0.92" style="stop-color:#644D1F"/>
				</linearGradient>
				<path class="st3" d="M196.9,174.3c-2.3,1.6-4.2,2.2-6.6,2.2c-4.6,0-7.8-2.5-7.8-6.4c0-2.4,1.2-4.4,3.2-5.7
					c2.6-1.7,5.1-2.2,10.1-2.4l1,0v-2.7c0-2.6-0.8-3.8-2.4-3.8c-1,0-2.2,0.8-3.2,2.3l-1,1.4c-0.7,1-1.8,1.5-3,1.5
					c-2.5,0-4.2-2.1-4.2-5.1c0-0.9,0-1.2,0.1-1.9c1.3,0.9,2.1,1.2,3.6,1.2c1.2,0,2.2-0.1,4.3-0.7c2-0.5,2.8-0.6,4.1-0.6
					c5.7,0,8.7,3,8.7,8.6v0.6v7v0.4c0,2.6,0.7,4.3,2.5,6h-8.5C197.2,175.3,197.1,175.1,196.9,174.3z M196.8,163.4
					c-4.4,0.5-6.8,2.5-6.8,5.8c0,2.4,1.5,4,3.8,4c0.9,0,1.6-0.2,3-0.7V163.4z"/>
				<linearGradient id="SVGID_5_" gradientUnits="userSpaceOnUse" x1="161.1284" y1="25.3127" x2="294.0639" y2="304.2155">
					<stop  offset="0" style="stop-color:#816829"/>
					<stop  offset="0.2077" style="stop-color:#C5A231"/>
					<stop  offset="0.4393" style="stop-color:#8A702B"/>
					<stop  offset="0.757" style="stop-color:#F0E373"/>
					<stop  offset="0.92" style="stop-color:#644D1F"/>
				</linearGradient>
				<path class="st4" d="M209.8,174.8c1.6-0.2,2.1-1,2.1-3.3V171v-9.6v-0.6c0-1.7-0.6-2.8-2.1-3.7c2.6-1.9,6-3,9-3v5.1l8.2-5.3
					c3.2,1,5.1,2.6,6.5,5.1l7.9-5.1c5,1.2,8,5.5,8,11.3c0,3.2-1.1,6.3-3.1,8.8c-0.8,1-1.8,2-2.9,3.1c-2.9,2.8-3.7,4.2-3.7,6.4
					c0,0.4,0,0.7,0.1,1.4c-1.6-1.5-2.4-3.5-2.4-5.5c0-1.8,0.4-2.8,2.6-6.6c1.7-3.1,2.4-5,2.4-7.1c0-3.5-2.2-6.2-5.1-6.2
					c-1.2,0-2.5,0.4-3.8,1.2v9.9v0.7c0,2.5,0.4,3.3,2.1,3.6v1.2h-11.1v-1.2c1.6-0.3,2.1-1.1,2.1-3.1v-0.4V164v-0.5
					c0-2.2-1.7-3.8-3.9-3.8c-1.2,0-2.4,0.4-3.9,1.4v9.9v0.7c0,2.2,0.5,2.9,2,3.3v1.2h-11V174.8z"/>
			</g>
			<g>
				<linearGradient id="SVGID_6_" gradientUnits="userSpaceOnUse" x1="75.2271" y1="66.2719" x2="208.1483" y2="345.1449">
					<stop  offset="0" style="stop-color:#816829"/>
					<stop  offset="0.2077" style="stop-color:#C5A231"/>
					<stop  offset="0.4393" style="stop-color:#8A702B"/>
					<stop  offset="0.757" style="stop-color:#F0E373"/>
					<stop  offset="0.92" style="stop-color:#644D1F"/>
				</linearGradient>
				<path class="st5" d="M136.2,192.6c0.2,0,0.4,0.1,0.6,0.4l0.6,0.6l0.4,0.4c0,0.1,0.1,0.2,0.1,0.2c0,0.1-0.1,0.3-0.4,0.6
					c-0.1,0.1-0.3,0.3-0.5,0.5c-0.3,0.3-0.5,0.5-0.7,0.5c-0.1,0-0.3-0.1-0.5-0.3c-0.3-0.3-0.5-0.6-0.7-0.7c-0.3-0.3-0.5-0.5-0.5-0.6
					c0-0.2,0.1-0.3,0.4-0.6c0.1-0.1,0.3-0.3,0.6-0.6C135.8,192.8,136.1,192.6,136.2,192.6z"/>
				<linearGradient id="SVGID_7_" gradientUnits="userSpaceOnUse" x1="85.4653" y1="61.3747" x2="218.4022" y2="340.2806">
					<stop  offset="0" style="stop-color:#816829"/>
					<stop  offset="0.2077" style="stop-color:#C5A231"/>
					<stop  offset="0.4393" style="stop-color:#8A702B"/>
					<stop  offset="0.757" style="stop-color:#F0E373"/>
					<stop  offset="0.92" style="stop-color:#644D1F"/>
				</linearGradient>
				<path class="st6" d="M148.2,187.5c0.6,0,1.2,0.1,1.7,0.3l0.6,0.3c0.3,0.1,0.5,0.1,0.6,0.1c0.1,0,0.2,0,0.3-0.1l0.4-0.2
					c0.1,0,0.1,0,0.1,0c0.1,0,0.2,0.1,0.2,0.3l0,0.7c0,0.1,0,0.2,0,0.3l0.1,0.9l0.1,0.8c0,0.1,0,0.2,0,0.2c0,0.3-0.1,0.4-0.2,0.4
					c-0.1,0-0.2-0.1-0.3-0.4c-0.2-0.8-0.6-1.6-1.4-2.2c-0.7-0.6-1.5-0.9-2.4-0.9c-0.6,0-1.1,0.2-1.5,0.6c-0.4,0.4-0.6,0.8-0.6,1.3
					c0,0.5,0.2,0.9,0.6,1.2c0.2,0.2,1,0.6,2.3,1.1c1.5,0.6,2.5,1.2,3,1.7c0.6,0.7,0.9,1.5,0.9,2.5c0,1.1-0.4,2-1.2,2.8
					c-0.8,0.8-1.7,1.2-2.8,1.2c-0.4,0-1.1-0.1-2.1-0.4c-0.4-0.1-0.8-0.2-1-0.3c-0.3-0.1-0.5-0.1-0.5-0.2c0,0-0.1-0.2-0.1-0.5
					c0-0.3-0.1-0.7-0.3-1.2c-0.2-0.8-0.4-1.4-0.4-1.6c0-0.3,0.1-0.4,0.3-0.4c0.1,0,0.2,0.1,0.2,0.2c0.3,1.1,0.9,1.9,1.6,2.6
					c0.8,0.7,1.6,1.1,2.4,1.1c0.6,0,1.2-0.2,1.7-0.7c0.5-0.5,0.8-1,0.8-1.6c0-0.5-0.1-0.9-0.4-1.2c-0.3-0.3-0.7-0.6-1.4-0.9
					l-1.5-0.6c-1.4-0.6-2.3-1.1-2.8-1.7c-0.5-0.5-0.7-1.2-0.7-2.1c0-1,0.3-1.8,1-2.5C146.3,187.9,147.1,187.5,148.2,187.5z"/>
				<linearGradient id="SVGID_8_" gradientUnits="userSpaceOnUse" x1="95.4184" y1="56.6284" x2="228.3562" y2="335.5362">
					<stop  offset="0" style="stop-color:#816829"/>
					<stop  offset="0.2077" style="stop-color:#C5A231"/>
					<stop  offset="0.4393" style="stop-color:#8A702B"/>
					<stop  offset="0.757" style="stop-color:#F0E373"/>
					<stop  offset="0.92" style="stop-color:#644D1F"/>
				</linearGradient>
				<path class="st7" d="M161,192.6c0.2,0,0.4,0.1,0.6,0.4l0.6,0.6l0.4,0.4c0.1,0.1,0.1,0.2,0.1,0.2c0,0.1-0.1,0.3-0.4,0.6
					c-0.1,0.1-0.3,0.3-0.5,0.5c-0.3,0.3-0.5,0.5-0.7,0.5c-0.1,0-0.3-0.1-0.5-0.3c-0.3-0.3-0.5-0.6-0.7-0.7c-0.3-0.3-0.5-0.5-0.5-0.6
					c0-0.2,0.1-0.3,0.4-0.6c0.1-0.1,0.4-0.3,0.6-0.6C160.6,192.8,160.8,192.6,161,192.6z"/>
				<linearGradient id="SVGID_9_" gradientUnits="userSpaceOnUse" x1="106.2348" y1="51.4657" x2="239.1781" y2="330.385">
					<stop  offset="0" style="stop-color:#816829"/>
					<stop  offset="0.2077" style="stop-color:#C5A231"/>
					<stop  offset="0.4393" style="stop-color:#8A702B"/>
					<stop  offset="0.757" style="stop-color:#F0E373"/>
					<stop  offset="0.92" style="stop-color:#644D1F"/>
				</linearGradient>
				<path class="st8" d="M173.1,189.9v2c0,0.6,0,0.9,0.1,1.1c0.1,0.1,0.3,0.2,0.6,0.2l0.3,0l0.4,0h0.8c0.6,0,1.1-0.3,1.5-1l0.2-0.5
					c0.1-0.1,0.2-0.2,0.3-0.2c0.1,0,0.2,0.1,0.2,0.2c0,0,0,0.2,0,0.4c0,0.2,0,0.3,0,0.4c0,0.2,0,0.7,0.1,1.4c0,0.5,0.1,0.9,0.1,1.2
					l0,0.5c0,0.1,0,0.1,0,0.2c0,0.1-0.1,0.1-0.2,0.1c-0.2,0-0.3-0.1-0.3-0.3c-0.1-0.5-0.3-0.9-0.6-1.2c-0.2-0.1-0.4-0.2-0.6-0.3
					c-0.2,0-0.7-0.1-1.3-0.1H174c-0.3,0-0.5,0-0.6,0.1c-0.1,0.1-0.2,0.3-0.2,0.5c0,0.3-0.1,0.8-0.1,1.4v0.8c0,0.9,0.1,1.5,0.2,1.8
					c0.1,0.3,0.2,0.4,0.4,0.6c0.1,0.1,0.4,0.1,0.7,0.1c2.6,0,4.3-0.7,5.1-2.2c0-0.1,0.1-0.1,0.1-0.1c0.1,0,0.1,0,0.2,0.1
					c0.1,0,0.1,0.1,0.1,0.2c0,0.6-0.2,1.2-0.5,1.7c-0.3,0.5-0.6,0.8-1.1,1c-0.4,0.2-1,0.3-1.7,0.3c-0.4,0-0.9,0-1.4-0.1l-1.1-0.1
					c-0.4,0-1,0-1.7,0c-0.5,0-1.2,0-2.1,0.1c-0.3,0-0.4,0-0.6,0c-0.2,0-0.2-0.1-0.3-0.2c0-0.1,0.1-0.2,0.2-0.3
					c0.4-0.1,0.6-0.3,0.8-0.4c0.1-0.2,0.2-0.4,0.3-0.8c0.1-0.3,0.1-0.8,0.1-1.3v-7.2c0-0.7-0.1-1.2-0.4-1.4
					c-0.2-0.3-0.7-0.4-1.4-0.5c-0.2,0-0.3-0.1-0.3-0.3c0-0.2,0.1-0.2,0.3-0.2c0,0,0.1,0,0.3,0c0.1,0,0.3,0,0.5,0l1,0l3.6,0
					c2.1,0,3.4,0,3.9-0.1c0.1,0,0.1,0,0.1,0c0.2,0,0.3,0.1,0.3,0.3c0,0.2,0,0.4,0,0.8c0.1,0.5,0.1,0.9,0.1,1.1
					c0,0.5-0.1,0.7-0.4,0.7c-0.1,0-0.2-0.1-0.2-0.4c0-0.6-0.2-1-0.7-1.3c-0.5-0.3-1.2-0.4-2.2-0.4h-1.2l-0.6,0.1
					c-0.3,0.1-0.5,0.4-0.5,0.9L173.1,189.9z"/>
				<linearGradient id="SVGID_10_" gradientUnits="userSpaceOnUse" x1="117.2345" y1="46.3814" x2="250.0614" y2="325.0566">
					<stop  offset="0" style="stop-color:#816829"/>
					<stop  offset="0.2077" style="stop-color:#C5A231"/>
					<stop  offset="0.4393" style="stop-color:#8A702B"/>
					<stop  offset="0.757" style="stop-color:#F0E373"/>
					<stop  offset="0.92" style="stop-color:#644D1F"/>
				</linearGradient>
				<path class="st9" d="M187.7,192.6c0.2,0,0.4,0.1,0.6,0.4l0.6,0.6l0.4,0.4c0.1,0.1,0.1,0.2,0.1,0.2c0,0.1-0.1,0.3-0.4,0.6
					c-0.2,0.1-0.3,0.3-0.5,0.5c-0.3,0.3-0.5,0.5-0.7,0.5c-0.1,0-0.3-0.1-0.5-0.3c-0.3-0.3-0.5-0.6-0.7-0.7c-0.3-0.3-0.5-0.5-0.5-0.6
					c0-0.2,0.1-0.3,0.4-0.6c0.1-0.1,0.3-0.3,0.6-0.6C187.3,192.8,187.5,192.6,187.7,192.6z"/>
				<linearGradient id="SVGID_11_" gradientUnits="userSpaceOnUse" x1="126.5947" y1="41.7633" x2="259.5369" y2="320.6801">
					<stop  offset="0" style="stop-color:#816829"/>
					<stop  offset="0.2077" style="stop-color:#C5A231"/>
					<stop  offset="0.4393" style="stop-color:#8A702B"/>
					<stop  offset="0.757" style="stop-color:#F0E373"/>
					<stop  offset="0.92" style="stop-color:#644D1F"/>
				</linearGradient>
				<path class="st10" d="M202.6,188.8l4.4,9.5c0.2,0.5,0.5,0.8,0.8,1.1c0.3,0.2,0.7,0.4,1.1,0.5c0.1,0,0.2,0.1,0.2,0.3
					c0,0.2-0.1,0.2-0.2,0.2c-0.1,0-0.2,0-0.4-0.1c-0.5-0.1-1.3-0.2-2.4-0.2c-1.1,0-1.9,0.1-2.2,0.1c-0.1,0-0.2,0-0.2,0
					c-0.2,0-0.3-0.1-0.3-0.3c0-0.1,0.1-0.1,0.2-0.2c0.3-0.1,0.6-0.3,0.8-0.5c0.2-0.2,0.3-0.4,0.3-0.7c0-0.3-0.3-1.1-0.8-2.2
					c-0.2-0.3-0.3-0.5-0.6-0.6c-0.2,0-0.9-0.1-2.2-0.1h-1.3l-0.9,0.1c-0.2,0.1-0.5,0.5-0.8,1.2l-0.3,0.7c-0.1,0.2-0.1,0.4-0.1,0.6
					c0,0.8,0.6,1.2,1.7,1.3c0.3,0,0.4,0.1,0.4,0.2c0,0.2-0.1,0.3-0.3,0.3c-0.1,0-0.3,0-0.5-0.1c-0.4-0.1-0.8-0.1-1.1-0.1
					c-0.3,0-0.8,0-1.5,0.1c-0.5,0.1-0.8,0.1-0.9,0.1c-0.2,0-0.3-0.1-0.3-0.2c0-0.1,0.1-0.2,0.3-0.2c0.3-0.1,0.6-0.3,0.8-0.6
					c0.2-0.3,0.5-0.9,0.9-1.7l2.6-5.7c0.2-0.5,0.4-0.8,0.4-0.9l0.9-1.7l0.5-0.9v0c0.2-0.4,0.3-0.7,0.4-0.7c0.1,0,0.3,0.3,0.5,0.8
					L202.6,188.8z M203,194.5l-1.2-2.8c-0.3-0.7-0.5-1-0.6-1c-0.1,0-0.2,0.2-0.4,0.6l-0.2,0.4l-1.1,2.4l-0.1,0.2
					c0,0.1-0.1,0.2-0.1,0.2c0,0.2,0.2,0.3,0.7,0.3h2.8c0.2,0,0.4-0.1,0.4-0.2C203.1,194.7,203.1,194.6,203,194.5L203,194.5z"/>
				<linearGradient id="SVGID_12_" gradientUnits="userSpaceOnUse" x1="140.4901" y1="35.0581" x2="273.4872" y2="314.0905">
					<stop  offset="0" style="stop-color:#816829"/>
					<stop  offset="0.2077" style="stop-color:#C5A231"/>
					<stop  offset="0.4393" style="stop-color:#8A702B"/>
					<stop  offset="0.757" style="stop-color:#F0E373"/>
					<stop  offset="0.92" style="stop-color:#644D1F"/>
				</linearGradient>
				<path class="st11" d="M216.3,192.6c0.2,0,0.4,0.1,0.6,0.4l0.6,0.6l0.4,0.4c0.1,0.1,0.1,0.2,0.1,0.2c0,0.1-0.1,0.3-0.4,0.6
					c-0.2,0.1-0.3,0.3-0.5,0.5c-0.3,0.3-0.5,0.5-0.7,0.5c-0.1,0-0.3-0.1-0.5-0.3c-0.3-0.3-0.5-0.6-0.7-0.7c-0.3-0.3-0.5-0.5-0.5-0.6
					c0-0.2,0.1-0.3,0.4-0.6c0.1-0.1,0.3-0.3,0.6-0.6C216,192.8,216.2,192.6,216.3,192.6z"/>
				<linearGradient id="SVGID_13_" gradientUnits="userSpaceOnUse" x1="150.7629" y1="30.2269" x2="283.7162" y2="309.1671">
					<stop  offset="0" style="stop-color:#816829"/>
					<stop  offset="0.2077" style="stop-color:#C5A231"/>
					<stop  offset="0.4393" style="stop-color:#8A702B"/>
					<stop  offset="0.757" style="stop-color:#F0E373"/>
					<stop  offset="0.92" style="stop-color:#644D1F"/>
				</linearGradient>
				<path class="st12" d="M228.3,187.5c0.6,0,1.2,0.1,1.8,0.3l0.6,0.3c0.3,0.1,0.5,0.1,0.6,0.1c0.1,0,0.2,0,0.3-0.1l0.4-0.2
					c0.1,0,0.1,0,0.2,0c0.1,0,0.2,0.1,0.2,0.3l0,0.7c0,0.1,0,0.2,0,0.3l0.1,0.9l0.1,0.8c0,0.1,0,0.2,0,0.2c0,0.3-0.1,0.4-0.2,0.4
					c-0.1,0-0.2-0.1-0.2-0.4c-0.2-0.8-0.6-1.6-1.4-2.2c-0.8-0.6-1.5-0.9-2.4-0.9c-0.6,0-1.1,0.2-1.5,0.6c-0.4,0.4-0.6,0.8-0.6,1.3
					c0,0.5,0.2,0.9,0.6,1.2c0.2,0.2,1,0.6,2.3,1.1c1.5,0.6,2.5,1.2,3,1.7c0.6,0.7,0.9,1.5,0.9,2.5c0,1.1-0.4,2-1.2,2.8
					c-0.8,0.8-1.7,1.2-2.8,1.2c-0.4,0-1.1-0.1-2.1-0.4c-0.4-0.1-0.8-0.2-1-0.3c-0.3-0.1-0.5-0.1-0.5-0.2c-0.1,0-0.1-0.2-0.1-0.5
					c0-0.3-0.1-0.7-0.3-1.2c-0.3-0.8-0.4-1.4-0.4-1.6c0-0.3,0.1-0.4,0.3-0.4c0.1,0,0.2,0.1,0.2,0.2c0.3,1.1,0.8,1.9,1.6,2.6
					c0.8,0.7,1.6,1.1,2.4,1.1c0.7,0,1.2-0.2,1.7-0.7c0.5-0.5,0.8-1,0.8-1.6c0-0.5-0.1-0.9-0.4-1.2c-0.3-0.3-0.7-0.6-1.4-0.9
					l-1.5-0.6c-1.4-0.6-2.3-1.1-2.8-1.7c-0.5-0.5-0.7-1.2-0.7-2.1c0-1,0.3-1.8,1-2.5C226.4,187.9,227.3,187.5,228.3,187.5z"/>
				<linearGradient id="SVGID_14_" gradientUnits="userSpaceOnUse" x1="160.7267" y1="25.5107" x2="293.6586" y2="304.4061">
					<stop  offset="0" style="stop-color:#816829"/>
					<stop  offset="0.2077" style="stop-color:#C5A231"/>
					<stop  offset="0.4393" style="stop-color:#8A702B"/>
					<stop  offset="0.757" style="stop-color:#F0E373"/>
					<stop  offset="0.92" style="stop-color:#644D1F"/>
				</linearGradient>
				<path class="st13" d="M241.1,192.6c0.2,0,0.4,0.1,0.6,0.4l0.5,0.6l0.4,0.4c0.1,0.1,0.1,0.2,0.1,0.2c0,0.1-0.1,0.3-0.4,0.6
					c-0.1,0.1-0.3,0.3-0.5,0.5c-0.3,0.3-0.5,0.5-0.7,0.5c-0.1,0-0.3-0.1-0.5-0.3c-0.3-0.3-0.5-0.6-0.7-0.7c-0.3-0.3-0.5-0.5-0.5-0.6
					c0-0.2,0.1-0.3,0.4-0.6c0.1-0.1,0.3-0.3,0.6-0.6C240.8,192.8,241,192.6,241.1,192.6z"/>
			</g>
		</g>
		<g>
			<linearGradient id="SVGID_15_" gradientUnits="userSpaceOnUse" x1="60.5673" y1="73.2955" x2="193.4692" y2="352.1279">
				<stop  offset="0" style="stop-color:#816829"/>
				<stop  offset="0.2077" style="stop-color:#C5A231"/>
				<stop  offset="0.4393" style="stop-color:#8A702B"/>
				<stop  offset="0.757" style="stop-color:#F0E373"/>
				<stop  offset="0.92" style="stop-color:#644D1F"/>
			</linearGradient>
			<path class="st14" d="M144.8,244.6c-1.8-0.2-3.6-0.3-5.4-0.6l0.6,1.2C141.5,244.9,143.1,244.7,144.8,244.6z"/>
			<linearGradient id="SVGID_16_" gradientUnits="userSpaceOnUse" x1="81.6835" y1="63.1881" x2="214.6141" y2="342.0807">
				<stop  offset="0" style="stop-color:#816829"/>
				<stop  offset="0.2077" style="stop-color:#C5A231"/>
				<stop  offset="0.4393" style="stop-color:#8A702B"/>
				<stop  offset="0.757" style="stop-color:#F0E373"/>
				<stop  offset="0.92" style="stop-color:#644D1F"/>
			</linearGradient>
			<path class="st15" d="M175.7,255.9c-0.3-1.8,0.6-3.7,0.1-5.5c-0.2-0.7-0.7-1.4-1.4-1.6c-0.1,0-0.1,0-0.2-0.1
				c0.2,0.2,0.3,0.4,0.4,0.6c0.1,0.5,0.1,0.9-0.1,1.4c-0.2,0.4-0.6,0.8-1,1c-1,0.5-2.2,0.2-3.2-0.2c-1.8-0.7-3.4-1.7-5-2.6
				c1.4,1,2.7,2.2,3.9,3.4c1.5,1.4,2.9,2.8,4.7,3.9c0.9,0.6,1.9,1.1,2.9,1.4C176.2,257.2,175.8,256.5,175.7,255.9z"/>
			<linearGradient id="SVGID_17_" gradientUnits="userSpaceOnUse" x1="63.3774" y1="71.8569" x2="196.3422" y2="350.8213">
				<stop  offset="0" style="stop-color:#816829"/>
				<stop  offset="0.2077" style="stop-color:#C5A231"/>
				<stop  offset="0.4393" style="stop-color:#8A702B"/>
				<stop  offset="0.757" style="stop-color:#F0E373"/>
				<stop  offset="0.92" style="stop-color:#644D1F"/>
			</linearGradient>
			<path class="st16" d="M153.2,248.6c-0.3-0.3-0.6-0.6-0.9-0.8c-0.5-0.4-1-0.7-1.5-1c-0.2-0.1-0.4-0.2-0.5-0.3
				c-0.8-0.4-1.6-0.6-2.3-0.7h0c0,0,0,0,0,0c-1.6-0.3-3-0.2-3.5-0.2c-1.3,0.1-2.6,0.2-3.9,0.4l2.4,4.8c1.3-0.1,3.4-0.3,5.7-0.3
				c1.9,0,4,0.1,6.2,0.3c0,0-0.1,0-0.1-0.1c-0.1-0.1-0.1-0.2-0.2-0.4C154.4,250.1,154,249.5,153.2,248.6z"/>
			<linearGradient id="SVGID_18_" gradientUnits="userSpaceOnUse" x1="92.1557" y1="58.1806" x2="225.0945" y2="337.0904">
				<stop  offset="0" style="stop-color:#816829"/>
				<stop  offset="0.2077" style="stop-color:#C5A231"/>
				<stop  offset="0.4393" style="stop-color:#8A702B"/>
				<stop  offset="0.757" style="stop-color:#F0E373"/>
				<stop  offset="0.92" style="stop-color:#644D1F"/>
			</linearGradient>
			<path class="st17" d="M239.2,264.6c-0.8,0-1.5-0.3-2.2-0.6c-0.8-0.4-1.7-0.4-2.6-0.2c-0.6,0.1-1.2,0.4-1.7,0.6
				c-0.9,0.3-2,0.2-2.9-0.2c-1.4-0.6-2.8-0.7-4.3-0.1c-0.8,0.4-1.7,0.5-2.5,0.3c-0.7-0.1-1.3-0.5-2-0.7c-0.8-0.2-1.6-0.2-2.5,0.1
				c-0.8,0.2-1.4,0.6-2.3,0.7c-0.9,0.1-1.6-0.2-2.4-0.5c-0.8-0.4-1.7-0.4-2.5-0.3c-0.6,0.1-1.2,0.4-1.8,0.6c-0.9,0.3-2,0.3-2.9,0
				c-0.6-0.2-1.2-0.5-1.8-0.6c-0.8-0.1-1.7,0.1-2.4,0.4c-0.8,0.4-1.6,0.5-2.5,0.4c-0.8-0.1-1.5-0.5-2.2-0.7c-0.7-0.2-1.6-0.2-2.3,0
				c-0.8,0.2-1.4,0.6-2.2,0.7c-0.9,0.1-1.7-0.1-2.5-0.4c-0.8-0.4-1.6-0.5-2.4-0.4c-0.7,0-1.2,0.3-1.9,0.6c-0.9,0.4-2,0.4-2.9,0
				c-0.6-0.2-1.1-0.5-1.8-0.6c-0.8-0.1-1.7,0-2.5,0.3c-0.8,0.3-1.5,0.5-2.4,0.5c-0.8,0-1.5-0.4-2.3-0.7c-0.8-0.3-1.6-0.2-2.4-0.1
				c-0.7,0.2-1.3,0.6-2,0.7c-1.7,0.3-3.1-0.9-4.9-0.8c-0.9,0-1.6,0.4-2.4,0.7c-1.1,0.4-2.3,0.1-3.3-0.3c-0.9-0.4-1.9-0.5-2.9-0.2
				c-1,0.2-1.7,0.7-2.8,0.8c-1,0-1.8-0.5-2.7-0.7c-1-0.3-2-0.2-2.9,0.2c-1.1,0.5-2.2,0.7-3.3,0.3c-0.9-0.3-1.6-0.7-2.6-0.7
				c-0.3,0-0.6,0.7-0.4,0.7c0.8,0,1.5,0.3,2.2,0.6c0.8,0.3,1.7,0.3,2.6,0.2c0.6-0.1,1.2-0.5,1.7-0.6c0.9-0.3,2-0.2,2.9,0.2
				c1.4,0.6,2.8,0.7,4.3,0.1c0.8-0.4,1.6-0.5,2.5-0.3c0.7,0.1,1.3,0.6,2,0.7c0.8,0.2,1.6,0.2,2.4-0.1c0.8-0.2,1.4-0.6,2.3-0.7
				c0.9-0.1,1.6,0.2,2.4,0.5c0.8,0.3,1.6,0.4,2.5,0.3c0.6-0.1,1.2-0.4,1.8-0.6c0.9-0.3,2-0.3,2.9,0c0.6,0.2,1.2,0.5,1.8,0.6
				c0.8,0.1,1.7,0,2.4-0.4c0.8-0.4,1.6-0.5,2.5-0.5c0.8,0.1,1.5,0.5,2.2,0.7c0.7,0.2,1.6,0.2,2.3,0c0.8-0.2,1.4-0.6,2.2-0.7
				c0.9-0.1,1.7,0.1,2.5,0.5c0.8,0.4,1.6,0.4,2.4,0.4c0.7,0,1.2-0.3,1.8-0.6c0.9-0.4,2-0.4,2.9,0c0.6,0.2,1.1,0.5,1.8,0.6
				c0.8,0.1,1.7,0,2.5-0.3c0.8-0.3,1.5-0.5,2.4-0.5c0.9,0,1.5,0.4,2.3,0.7c0.8,0.3,1.7,0.2,2.4,0.1c0.7-0.2,1.3-0.5,2-0.7
				c1.8-0.3,3.1,0.9,4.9,0.8c0.9,0,1.6-0.4,2.4-0.7c1.1-0.4,2.3-0.1,3.3,0.3c0.9,0.4,1.9,0.4,2.9,0.2c1-0.2,1.7-0.7,2.8-0.8
				c1,0,1.8,0.5,2.7,0.8c1,0.3,2,0.2,2.9-0.2c1.1-0.5,2.2-0.7,3.3-0.3c0.9,0.3,1.6,0.7,2.6,0.7C239.1,265.3,239.4,264.6,239.2,264.6
				"/>
			<linearGradient id="SVGID_19_" gradientUnits="userSpaceOnUse" x1="90.4307" y1="59.0235" x2="223.3592" y2="337.9119">
				<stop  offset="0" style="stop-color:#816829"/>
				<stop  offset="0.2077" style="stop-color:#C5A231"/>
				<stop  offset="0.4393" style="stop-color:#8A702B"/>
				<stop  offset="0.757" style="stop-color:#F0E373"/>
				<stop  offset="0.92" style="stop-color:#644D1F"/>
			</linearGradient>
			<path class="st18" d="M220.2,268.3c-1-0.2-2-0.2-2.9,0.2c-1,0.5-2.2,0.7-3.3,0.4c-0.8-0.3-1.5-0.7-2.4-0.7
				c-1.7-0.1-3.1,1.1-4.9,0.8c-0.7-0.1-1.3-0.5-2.1-0.7c-0.8-0.2-1.6-0.2-2.4,0.1c-0.8,0.2-1.4,0.7-2.3,0.7c-0.9,0-1.6-0.2-2.4-0.5
				c-0.8-0.3-1.7-0.5-2.5-0.3c-0.6,0.1-1.2,0.4-1.8,0.6c-0.9,0.3-2,0.3-2.9-0.1c-0.6-0.3-1.2-0.5-1.8-0.6c-0.8-0.1-1.6,0-2.4,0.4
				c-0.8,0.4-1.6,0.5-2.5,0.5c-0.8-0.1-1.4-0.5-2.2-0.7c-0.7-0.2-1.6-0.2-2.3,0c-0.8,0.2-1.4,0.6-2.2,0.7c-0.9,0.1-1.6-0.1-2.5-0.5
				c-0.8-0.3-1.6-0.5-2.4-0.4c-0.7,0.1-1.2,0.3-1.9,0.6c-0.9,0.4-2,0.4-2.9,0.1c-0.6-0.2-1.1-0.6-1.8-0.6c-0.9-0.1-1.7,0-2.5,0.3
				c-0.8,0.3-1.5,0.6-2.4,0.5c-0.9-0.1-1.5-0.5-2.3-0.7c-0.2-0.1-0.3,0-0.4,0.2c-0.1,0.2,0.7,0.5,0.7,0.5l0,0
				c0.8,0.3,1.5,0.7,2.4,0.7c1.7,0,3.1-1.1,4.9-0.8c0.7,0.1,1.3,0.6,2.1,0.7c0.8,0.2,1.7,0.2,2.4-0.1c0.8-0.3,1.5-0.7,2.3-0.7
				c0.9,0,1.6,0.2,2.4,0.5c0.8,0.3,1.7,0.5,2.5,0.3c0.6-0.1,1.2-0.4,1.8-0.6c0.9-0.3,2-0.3,2.9,0c0.6,0.3,1.2,0.6,1.9,0.6
				c0.9,0.1,1.6,0,2.4-0.4c0.8-0.3,1.6-0.5,2.5-0.4c0.8,0.1,1.4,0.5,2.2,0.7c0.7,0.2,1.6,0.2,2.3,0c0.8-0.2,1.4-0.7,2.2-0.7
				c0.9-0.1,1.6,0.1,2.5,0.4c0.8,0.3,1.6,0.5,2.4,0.4c0.7-0.1,1.2-0.3,1.8-0.6c0.9-0.3,2-0.4,2.9,0c0.6,0.2,1.1,0.5,1.8,0.6
				c0.9,0.1,1.7,0,2.5-0.3c0.8-0.3,1.5-0.6,2.4-0.5c0.9,0.1,1.5,0.4,2.3,0.7c0.8,0.2,1.6,0.3,2.4,0.1c0.7-0.1,1.3-0.6,2.1-0.7
				c0.9-0.1,1.7,0,2.5,0.4c0,0,0.7,0.4,1.3,0.5c0.7,0.1,0.4-0.7,0.4-0.7C221.9,269.1,221.2,268.5,220.2,268.3"/>
			<linearGradient id="SVGID_20_" gradientUnits="userSpaceOnUse" x1="90.6754" y1="58.7871" x2="223.6732" y2="337.8208">
				<stop  offset="0" style="stop-color:#816829"/>
				<stop  offset="0.2077" style="stop-color:#C5A231"/>
				<stop  offset="0.4393" style="stop-color:#8A702B"/>
				<stop  offset="0.757" style="stop-color:#F0E373"/>
				<stop  offset="0.92" style="stop-color:#644D1F"/>
			</linearGradient>
			<polygon class="st19" points="179.4,243.2 178.6,244 177.7,243.2 178.6,242.3 			"/>
			<linearGradient id="SVGID_21_" gradientUnits="userSpaceOnUse" x1="97.1121" y1="55.6976" x2="230.1207" y2="334.7542">
				<stop  offset="0" style="stop-color:#816829"/>
				<stop  offset="0.2077" style="stop-color:#C5A231"/>
				<stop  offset="0.4393" style="stop-color:#8A702B"/>
				<stop  offset="0.757" style="stop-color:#F0E373"/>
				<stop  offset="0.92" style="stop-color:#644D1F"/>
			</linearGradient>
			<polygon class="st20" points="187.6,243.3 186.5,244.4 185.5,243.3 186.5,242.3 			"/>
			<linearGradient id="SVGID_22_" gradientUnits="userSpaceOnUse" x1="103.6066" y1="52.6008" x2="236.6153" y2="331.6573">
				<stop  offset="0" style="stop-color:#816829"/>
				<stop  offset="0.2077" style="stop-color:#C5A231"/>
				<stop  offset="0.4393" style="stop-color:#8A702B"/>
				<stop  offset="0.757" style="stop-color:#F0E373"/>
				<stop  offset="0.92" style="stop-color:#644D1F"/>
			</linearGradient>
			<polygon class="st21" points="195.6,243.3 194.5,244.4 193.4,243.3 194.5,242.3 			"/>
			<linearGradient id="SVGID_23_" gradientUnits="userSpaceOnUse" x1="110.1854" y1="49.4838" x2="243.1832" y2="328.5176">
				<stop  offset="0" style="stop-color:#816829"/>
				<stop  offset="0.2077" style="stop-color:#C5A231"/>
				<stop  offset="0.4393" style="stop-color:#8A702B"/>
				<stop  offset="0.757" style="stop-color:#F0E373"/>
				<stop  offset="0.92" style="stop-color:#644D1F"/>
			</linearGradient>
			<polygon class="st22" points="203.4,243.2 202.5,244 201.6,243.2 202.5,242.3 			"/>
			<linearGradient id="SVGID_24_" gradientUnits="userSpaceOnUse" x1="112.5579" y1="48.4955" x2="245.4759" y2="327.3617">
				<stop  offset="0" style="stop-color:#816829"/>
				<stop  offset="0.2077" style="stop-color:#C5A231"/>
				<stop  offset="0.4393" style="stop-color:#8A702B"/>
				<stop  offset="0.757" style="stop-color:#F0E373"/>
				<stop  offset="0.92" style="stop-color:#644D1F"/>
			</linearGradient>
			<path class="st23" d="M207.7,251.7c-0.4-0.2-0.8-0.6-1.1-1c-0.2-0.4-0.2-0.9,0-1.4c0.1-0.2,0.2-0.4,0.4-0.6c-0.1,0-0.1,0-0.2,0.1
				c-0.7,0.3-1.2,0.9-1.4,1.6c-0.5,1.8,0.5,3.7,0.1,5.5c-0.1,0.7-0.4,1.4-1,1.8c1-0.3,2-0.8,2.9-1.4c1.7-1.1,3.2-2.5,4.7-3.9
				c1.2-1.2,2.5-2.4,3.9-3.4c-1.7,0.9-3.3,1.9-5,2.6C209.8,251.9,208.6,252.2,207.7,251.7z"/>
			<linearGradient id="SVGID_25_" gradientUnits="userSpaceOnUse" x1="139.6835" y1="35.7729" x2="272.4951" y2="314.4159">
				<stop  offset="0" style="stop-color:#816829"/>
				<stop  offset="0.2077" style="stop-color:#C5A231"/>
				<stop  offset="0.4393" style="stop-color:#8A702B"/>
				<stop  offset="0.757" style="stop-color:#F0E373"/>
				<stop  offset="0.92" style="stop-color:#644D1F"/>
			</linearGradient>
			<path class="st24" d="M241.8,244c-1.8,0.3-3.6,0.4-5.4,0.6c1.6,0.1,3.3,0.3,4.8,0.5L241.8,244z"/>
			<linearGradient id="SVGID_26_" gradientUnits="userSpaceOnUse" x1="133.4199" y1="38.5228" x2="266.3539" y2="317.4225">
				<stop  offset="0" style="stop-color:#816829"/>
				<stop  offset="0.2077" style="stop-color:#C5A231"/>
				<stop  offset="0.4393" style="stop-color:#8A702B"/>
				<stop  offset="0.757" style="stop-color:#F0E373"/>
				<stop  offset="0.92" style="stop-color:#644D1F"/>
			</linearGradient>
			<path class="st25" d="M238.3,250.9l2.4-4.8c-1.3-0.2-2.6-0.3-3.9-0.4c-0.5-0.1-1.9-0.2-3.5,0.2h0h0c-0.7,0.1-1.5,0.4-2.3,0.7
				c-0.1,0-0.3,0.2-0.5,0.3c-0.5,0.3-1,0.6-1.5,1c-0.3,0.3-0.6,0.5-0.9,0.8c-0.8,0.8-1.2,1.5-1.3,2c-0.1,0.1-0.1,0.2-0.2,0.4
				c0,0-0.1,0-0.1,0.1c2.2-0.3,4.3-0.3,6.2-0.3C235,250.7,237,250.8,238.3,250.9z"/>
			<linearGradient id="SVGID_27_" gradientUnits="userSpaceOnUse" x1="105.1933" y1="51.9742" x2="238.128" y2="330.8755">
				<stop  offset="0" style="stop-color:#816829"/>
				<stop  offset="0.2077" style="stop-color:#C5A231"/>
				<stop  offset="0.4393" style="stop-color:#8A702B"/>
				<stop  offset="0.757" style="stop-color:#F0E373"/>
				<stop  offset="0.92" style="stop-color:#644D1F"/>
			</linearGradient>
			<path class="st26" d="M206.8,219.6L206.8,219.6l-0.6-1.3c-0.3,0.1-0.7,0.2-1,0.3l0,0c-0.2,0.1-0.5,0.1-0.7,0.2l0,0
				c-0.3,0.1-0.7,0.2-1.1,0.3l0,0c-0.3,0.1-0.5,0.1-0.8,0.2c-0.3,0.1-0.7,0.2-1,0.2c-0.3,0.1-0.6,0.1-0.9,0.2l0,0
				c-0.3,0.1-0.7,0.1-1.1,0.2l0,0c-0.3,0-0.5,0.1-0.8,0.1l0,0c-0.3,0.1-0.7,0.1-1.1,0.2c-0.3,0-0.6,0.1-0.9,0.1
				c-0.4,0-0.7,0.1-1.1,0.1l0,0c-0.3,0-0.6,0-0.8,0.1l0,0c-0.4,0.1-0.7,0.1-1.1,0.1c-0.3,0-0.6,0-0.9,0l0,0c-0.4,0-0.7,0-1.1,0
				c-0.3,0-0.6,0-0.9,0l0,0c-0.2,0-0.4,0-0.5,0c-0.2,0-0.4,0-0.6,0l0,0c-0.3,0-0.6,0-0.9,0c-0.4,0-0.7,0-1.1,0c-0.3,0-0.6,0-0.9,0
				l0,0c-0.4,0-0.7,0-1.1-0.1c-0.3,0-0.6,0-0.8-0.1c-0.4,0-0.7-0.1-1.1-0.1l0,0c-0.3-0.1-0.6-0.1-0.8-0.1l0,0
				c-0.4-0.1-0.7-0.1-1.1-0.2l0,0c-0.3-0.1-0.6-0.1-0.8-0.2c-0.3-0.1-0.7-0.1-1.1-0.2l0,0c-0.3,0-0.6-0.1-0.8-0.2
				c-0.4-0.1-0.7-0.1-1.1-0.2c-0.3-0.1-0.5-0.1-0.8-0.2l0,0c-0.3-0.1-0.7-0.2-1-0.3c-0.2-0.1-0.5-0.2-0.7-0.2l0,0
				c-0.3-0.1-0.7-0.2-1-0.3l-6,12.8h43.3L206.8,219.6z M175.5,219.8c0.3,0.1,0.5,0.1,0.7,0.2l-2,7.3h1.1l1.9-7
				c0.3,0.1,0.6,0.1,0.9,0.2l-1.6,6.8h1.1l1.5-6.5c0.3,0.1,0.6,0.1,0.9,0.2l-1.2,6.3h1.1l1.2-6.1c0.3,0.1,0.6,0.1,0.9,0.1l-0.9,6
				h1.1l0.9-5.8c0.3,0,0.6,0.1,0.9,0.1l-0.7,5.7h1.1l0.6-5.6c0.3,0,0.6,0.1,0.9,0.1l-0.4,5.5h1.1l0.4-5.4c0.3,0,0.6,0,0.9,0.1
				l-0.2,5.3h1.1l0.2-5.3c0.3,0,0.6,0,0.9,0v5.3h1.1V222c0.3,0,0.6,0,0.9,0l0.2,5.3h1.1L193,222c0.3,0,0.6,0,0.9-0.1l0.4,5.4h1.1
				l-0.4-5.5c0.3,0,0.6-0.1,0.9-0.1l0.6,5.6h1.1l-0.7-5.7c0.3,0,0.6-0.1,0.9-0.1l0.9,5.8h1.1l-0.9-6c0.3,0,0.6-0.1,0.9-0.1l1.2,6.1
				h1.1l-1.2-6.3c0.3-0.1,0.6-0.1,0.9-0.2l1.5,6.5h1.1l-1.6-6.8c0.3-0.1,0.6-0.1,0.9-0.2l1.9,7h1.1l-2-7.3c0.2-0.1,0.5-0.1,0.7-0.2
				l0.7,1.5l3.3,8.5h-38l3.2-8.3L175.5,219.8z"/>
			<linearGradient id="SVGID_28_" gradientUnits="userSpaceOnUse" x1="99.9713" y1="54.4602" x2="232.908" y2="333.3657">
				<stop  offset="0" style="stop-color:#816829"/>
				<stop  offset="0.2077" style="stop-color:#C5A231"/>
				<stop  offset="0.4393" style="stop-color:#8A702B"/>
				<stop  offset="0.757" style="stop-color:#F0E373"/>
				<stop  offset="0.92" style="stop-color:#644D1F"/>
			</linearGradient>
			<path class="st27" d="M253,260.1c-1.7,0-3.3-0.8-5-0.9c-1.7,0-3.3,0.9-5,0.9c-1.7,0-3.2-0.8-5-0.9c-1.7,0-3.2,0.9-5,0.9
				c-1.7,0-3.2-0.8-5-0.9c-1.7,0-3.2,0.9-5,0.9c-1.7,0-3.2-0.8-5-0.9c-1.7,0-3.3,0.9-5,0.9c-0.3,0-0.6,0-0.9-0.1l0.5-0.8
				c7.7-8.4,27.1-5.6,27.1-5.6l12.8-25.8h-0.2h-1.2h-1.4h-0.8h-0.6l-1.7,3.5c-6.3,3.4-12.8,6.2-19.7,8.4v-14.2h6.9
				c0,0-2.5-9.6-9-9.6s-9,9.6-9,9.6h6.9V241c-4.7,1.3-9.6,2.4-14.6,3.1v-5.2h1.3v-1.3h-8.9v-7.6l-1.3,0.3v7.2h-1.6v-7.9h-1.3v7.9
				h-3.9v-7.9h-1.3v7.9h-1.6v-7.9h-1.3v7.9h-3.8v-7.3h-1.3v7.3h-1.6v-7.3h-1.3v7.3h-9.1v1.3h1.3v5.2c-4.9-0.7-9.7-1.8-14.4-3.1
				v-15.4h6.9c0,0-2.5-9.6-9-9.6c-6.5,0-9,9.6-9,9.6h6.9v14.2c-6.9-2.2-13.4-5-19.7-8.4l-1.7-3.5h-0.6h-0.8H130h-1.2h-0.2l12.8,25.8
				c0,0,19.1-2.7,26.9,5.5l-0.9,0.2c-1.4,0.2-2.7,0.8-4.2,0.8c-1.7,0-3.2-0.8-5-0.9c-1.7,0-3.3,0.9-5,0.9c-1.7,0-3.2-0.8-5-0.9
				c-1.7,0-3.3,0.9-5,0.9c-1.7,0-3.3-0.8-5-0.9c-1.7,0-3.3,0.9-5,0.9c-1.7,0-3.3-0.8-5-0.9c-0.2,0-0.6,0.8-0.3,0.8
				c1.7,0,3.2,0.9,5,0.9c1.7,0,3.3-0.8,5-0.9c1.7,0,3.2,0.9,5,0.9c1.7,0,3.3-0.8,5-0.9c1.7,0,3.2,0.9,5,0.9c1.7,0,3.3-0.8,5-0.9
				c1.7,0,3.2,0.9,5,0.9c1.7,0,3.3-0.8,5-0.9c1.7,0,3.3,0.9,5,0.9c1.7,0,3.2-0.8,5-0.9c1.7,0,3.3,0.9,5,0.9c1.7,0,3.2-0.8,5-0.9
				c1.7,0,3.2,0.9,5,0.9c1.7,0,3.3-0.8,5-0.9c1.7,0,3.2,0.9,5,0.9c1.7,0,3.2-0.8,5-0.9c1.7,0,3.3,0.9,5,0.9c1.7,0,3.3-0.8,5-0.9
				c1.7,0,3.3,0.9,5,0.9c1.7,0,3.3-0.8,5-0.9c1.7,0,3.2,0.9,5,0.9c1.7,0,3.3-0.8,5-0.9c1.7,0,3.3,0.9,5,0.9c1.7,0,3.2-0.8,5-0.9
				c1.7,0,3.3,0.9,5,0.9C252.9,260.9,253.2,260.1,253,260.1z M217.6,224.4c1-2.5,3.2-7.1,7.2-7.1c1.7,0,3.1,0.8,4.2,2h-6.7
				c-0.5,0.3-0.9,0.8-1.3,1.3h9.1c0.3,0.4,0.6,0.9,0.8,1.3h-10.8c-0.3,0.5-0.5,0.9-0.7,1.3h12.1c0.2,0.5,0.4,0.9,0.5,1.3H217.6z
				 M225.6,225.6v14.5c-0.5,0.2-1,0.3-1.5,0.5v-15H225.6z M205.7,238.9h1.3v1.3h-1.3V238.9z M205.7,241.5h1.3v2.9
				c-0.4,0.1-0.8,0.1-1.3,0.2V241.5z M200.6,238.9h3.8v1.3h-3.8V238.9z M200.6,241.5h3.8v3.2c-1.3,0.1-2.5,0.3-3.8,0.4V241.5z
				 M197.8,238.9h1.6v1.3h-1.6V238.9z M197.8,241.5h1.6v3.7c-0.5,0-1,0.1-1.6,0.1V241.5z M192.5,238.9h3.9v1.3h-3.9V238.9z
				 M192.5,241.5h3.9v3.9c-1.3,0.1-2.6,0.1-3.9,0.1V241.5z M189.7,238.9h1.6v1.3h-1.6V238.9z M189.7,241.5h1.6v4c-0.2,0-0.5,0-0.7,0
				c-0.3,0-0.6,0-0.9,0V241.5z M184.6,238.9h3.8v1.3h-3.8V238.9z M184.6,241.5h3.8v4c-1.3,0-2.5-0.1-3.8-0.1V241.5z M181.8,238.9
				h1.6v1.3h-1.6V238.9z M181.8,241.5h1.6v3.8c-0.5,0-1-0.1-1.6-0.1V241.5z M176.6,238.9h4v1.3h-4V238.9z M176.6,241.5h4v3.6
				c-1.3-0.1-2.7-0.2-4-0.4V241.5z M174,238.9h1.3v1.3H174V238.9z M174,241.5h1.3v3c-0.4-0.1-0.9-0.1-1.3-0.2V241.5z M149.1,224.4
				c1-2.5,3.2-7.1,7.2-7.1c1.7,0,3.1,0.8,4.2,2h-6.7c-0.5,0.3-0.9,0.8-1.3,1.3h9.1c0.3,0.4,0.6,0.9,0.8,1.3h-10.8
				c-0.3,0.5-0.5,0.9-0.7,1.3H163c0.2,0.5,0.4,0.9,0.5,1.3H149.1z M157.1,225.6v15c-0.5-0.2-1-0.3-1.6-0.5v-14.5H157.1z
				 M189.7,246.7L189.7,246.7c0.3,0,0.6,0,0.9,0c0.3,0,0.6,0,0.9,0l0,0c19.6-0.2,38-5,54.2-13.4l-0.9,1.8
				c-16.3,8.2-34.7,12.9-54.2,12.9c-19.5,0-37.9-4.6-54.3-12.9l-0.9-1.8C151.7,241.7,170.1,246.5,189.7,246.7z M183.7,255.4
				c-0.4,1.9-2.2,3.2-4.1,3.5c-2.2,0.3-4.4-0.5-6.2-1.7c-1.7-1.1-3.2-2.5-4.7-3.9c-1.2-1.1-2.4-2.3-3.7-3.3
				c-0.4-0.3-1.3-1.1-2.7-1.7c0,0,0,0,0,0l0,0c-0.6-0.3-1.3-0.5-2.1-0.6c-0.2,0-0.4-0.1-0.6-0.1c-0.5-0.1-1-0.1-1.6-0.1
				c-0.4,0-0.8,0.1-1.1,0.2c-1.1,0.2-1.7,0.5-2,0.8c-0.1,0-0.2,0.1-0.3,0.2h0c0.4,0.5,0.7,1.1,0.9,1.7c0.1,0.3,0.2,0.6,0.3,0.9
				c4.8,0.7,9.8,2.2,13.3,5.4l0,0c0.1,0.1,1.4,1.4,2.7,3.5c-0.5-0.1-1.1-0.3-1.6-0.4l-0.3-0.1c-0.9-1.3-1.7-2.1-1.7-2.1
				c-5.1-4.5-13.5-5.5-19.8-5.5c-2.9,0-5.3,0.2-6.5,0.3l-4.3-8.7c0,0,0,0,0,0v0l-7.2-14.5h1.4l6.9,13.9c0.9,0.2,1.8,0.3,2.7,0.4
				c0.5,0.1,1,0.1,1.5,0.2c0,0,0,0,0,0c1.9,0.4,4.2,0.5,7.9,2.1c0.5,0.3,1.1,0.6,1.5,0.9c0.6,0.4,1.1,0.9,1.6,1.4
				c0.1-0.1,0.2-0.1,0.3-0.2c1.3-0.8,2.8-1.2,4.3-1.3c0.4,0,1,0,1.5,0.1c3.6,0.7,5.4,1.8,7,2.5h0c0.4,0.2,0.8,0.5,1.2,0.7
				c1,0.5,2,1.1,3.1,1.4c0.6,0.2,1.2,0.2,1.8-0.1c0.2-0.1,0.4-0.3,0.5-0.5c0,0,0-0.1,0.1-0.1c0,0,0,0,0-0.1c0,0,0,0,0-0.1
				c0-0.1,0-0.1,0-0.2c0,0,0,0,0,0c0,0,0-0.1,0-0.1c0,0,0-0.1,0-0.1c0-0.1,0-0.1-0.1-0.2c0,0,0,0,0-0.1c0,0,0,0,0,0c0,0,0-0.1,0-0.1
				c0,0-0.1-0.1-0.1-0.1c-0.2-0.2-0.3-0.2-0.5-0.1c-0.2,0.1-0.3,0.2-0.3,0.4c0,0,0,0.1,0,0.1c0,0,0,0,0,0c0,0,0,0,0.1,0
				c-0.1,0,0.1,0,0.1,0c0,0,0,0,0,0c0,0,0.1,0,0,0c0.2-0.1,0.5,0,0.6,0.2c0.1,0.2,0,0.5-0.2,0.6c-0.5,0.2-1.1,0-1.4-0.5
				c-0.3-0.6,0-1.2,0.5-1.6c0.6-0.4,1.6-0.4,2.2-0.1c0.9,0.3,1.5,1.2,1.7,2.1c0.3,1,0.1,2.2,0,3.2c-0.1,1.1-0.3,2.3,0.3,3.2
				c0.3,0.5,0.7,0.8,1.3,0.8c0.5,0,0.9-0.3,1-0.8c0.1-0.4-0.3-0.8-0.7-0.8c-0.2,0-0.4,0.2-0.4,0.4c0,0.2,0.3,0.3,0.3,0.1
				c0-0.3,0.6-0.3,0.6,0.1c-0.1,0.5-0.6,0.8-1,0.5c-0.4-0.3-0.4-0.9-0.1-1.2c0.3-0.4,0.8-0.4,1.2-0.2c0.4,0.2,0.7,0.6,0.8,1
				c0.1,0.7-0.4,1.2-0.9,1.4c0.4,0,0.8,0,1.2-0.1c0.8-0.1,1.6-0.6,2.2-1.1c0.3-0.3,0.5-0.6,0.7-1c0.1-0.2,0.1-0.3,0.2-0.5
				c0-0.1,0-0.2,0-0.3c0-0.1,0-0.1,0-0.2c0,0,0-0.2,0-0.2c0-0.8-0.3-1.6-0.9-2c-0.2-0.2-0.5-0.3-0.8-0.4c0.4,0.2,0.6,0.6,0.6,1
				c0.1,0.5-0.1,1-0.4,1.4c-0.3,0.3-0.8,0.4-1.2,0.4c-0.9-0.1-1.6-1-1.4-1.9c0.1-1,1-1.7,2-1.7c1,0,1.9,0.5,2.5,1.4
				C183.7,253.6,183.9,254.5,183.7,255.4z M190.6,259.3c-0.8,0-1.8-0.1-2.7-0.3c-0.3-0.1-0.5-0.1-0.6-0.1c-0.2,0-0.4-0.1-0.5-0.1
				c-0.5,0-0.8,0.2-1.2,0.5l0-0.2c0-0.9,0.4-1.9,1-2.7c0.4-0.5,0.6-0.6,1.2-1c0,0.3,0,0.4,0,0.5c0,1.5,1,2.6,2.5,2.6
				c1.2,0,2.2-0.9,2.2-2c0-1.1-0.7-1.6-2.7-2c-1.8-0.3-2.2-0.5-2.8-1.1c-0.5-0.5-0.7-1-0.7-1.6c0-1.5,1.6-2.7,3.9-2.7
				c0.7,0,1.2,0.1,2.3,0.3c0.7,0.1,1,0.2,1.2,0.2c0.5,0,0.9-0.1,1.4-0.5c-0.1,1.4-0.7,2.4-1.5,2.4c-0.4,0-0.7-0.2-1.1-0.7
				c-0.7-0.8-1.1-1.1-1.9-1.1c-0.9,0-1.6,0.5-1.6,1.2c0,0.4,0.2,0.8,0.6,1c0.3,0.1,0.6,0.3,1,0.4c0.1,0.1,0.6,0.2,1.4,0.3
				c1.2,0.3,1.9,0.6,2.4,1c0.7,0.5,1,1.4,1,2.3C195.3,258,193.4,259.3,190.6,259.3z M209.9,258.9c0.9-1.3,1.8-2.2,1.9-2.3
				c0,0,0,0,0,0l0,0c3.5-3.2,8.5-4.7,13.3-5.4c0.1-0.3,0.2-0.6,0.3-0.9c0.3-0.6,0.6-1.2,0.9-1.7l0,0c-0.1-0.1-0.2-0.1-0.3-0.2
				c-0.3-0.3-1-0.6-2-0.8c-0.4-0.1-0.7-0.1-1.1-0.2c-0.6,0-1.1,0-1.6,0.1c-0.2,0-0.4,0-0.6,0.1c-0.8,0.1-1.5,0.4-2.1,0.6l0,0
				c0,0,0,0,0,0c-1.4,0.6-2.3,1.4-2.7,1.7c-1.3,1-2.5,2.2-3.7,3.3c-1.5,1.4-2.9,2.8-4.7,3.9c-1.8,1.1-4,2-6.2,1.7
				c-1.9-0.3-3.7-1.6-4-3.5c-0.2-0.9,0-1.9,0.5-2.6c0.5-0.9,1.5-1.4,2.5-1.4c1,0,1.9,0.7,2,1.7c0.1,0.9-0.5,1.8-1.4,1.9
				c-0.4,0.1-0.9,0-1.2-0.4c-0.4-0.3-0.5-0.9-0.4-1.4c0.1-0.4,0.3-0.8,0.6-1c-0.3,0.1-0.5,0.2-0.7,0.4c-0.6,0.5-0.9,1.2-0.9,2
				c0,0,0,0.1,0,0.2c0,0,0,0.1,0,0.2c0,0.1,0,0.2,0,0.3c0,0.2,0.1,0.3,0.2,0.5c0.2,0.4,0.4,0.7,0.7,1c0.6,0.6,1.4,1,2.2,1.1
				c0.4,0.1,0.8,0.1,1.1,0.1c-0.6-0.2-1-0.7-0.9-1.4c0-0.4,0.3-0.9,0.7-1c0.4-0.2,0.9-0.1,1.2,0.2c0.3,0.4,0.3,0.9-0.1,1.2
				c-0.4,0.3-1,0-1-0.5c0-0.4,0.5-0.4,0.5-0.1c0,0.2,0.3,0.1,0.3-0.1c0-0.2-0.2-0.4-0.4-0.4c-0.4,0-0.8,0.4-0.7,0.8
				c0.1,0.5,0.5,0.8,1,0.8c0.5,0,1-0.3,1.3-0.8c0.6-0.9,0.4-2.1,0.3-3.2c-0.2-1.1-0.4-2.2-0.1-3.2c0.3-0.9,0.8-1.7,1.7-2.1
				c0.7-0.2,1.6-0.2,2.3,0.1c0.5,0.3,0.8,1,0.5,1.6c-0.3,0.5-0.8,0.7-1.4,0.5c-0.2-0.1-0.3-0.4-0.2-0.6c0.1-0.2,0.4-0.3,0.6-0.2
				c0,0,0,0,0.1,0h0c0,0,0.1-0.1,0.1,0c0,0,0,0,0,0c0,0,0,0,0,0c0,0,0-0.1,0-0.1c0-0.1-0.1-0.3-0.3-0.4c-0.2,0-0.4,0-0.5,0.1
				c0,0-0.1,0.1-0.1,0.1c0,0,0,0-0.1,0.1c0,0,0,0,0,0c0,0,0,0,0,0.1c0,0.1,0,0.1-0.1,0.2c0,0,0,0.1,0,0.1c0,0.1,0,0.1,0,0.1
				c0,0,0,0,0,0c0,0.1,0,0.1,0,0.2c0,0,0,0,0,0.1c0,0,0,0,0,0.1c0,0,0.1,0.1,0,0.1c0.1,0.2,0.3,0.4,0.5,0.5c0.5,0.3,1.2,0.3,1.8,0.1
				c1.1-0.3,2.1-0.9,3.1-1.4c0.4-0.2,0.8-0.4,1.2-0.7c0,0,0,0,0,0c1.6-0.7,3.4-1.8,6.9-2.5c0.5-0.1,1.1-0.1,1.5-0.1
				c1.5,0,3,0.5,4.3,1.3c0.1,0.1,0.2,0.1,0.3,0.2c0.5-0.5,1-1,1.6-1.4c0.4-0.3,0.9-0.6,1.5-0.9c3.7-1.6,6-1.7,7.9-2.1c0,0,0,0,0,0
				c0.5,0,1-0.1,1.6-0.2c0.9-0.1,1.8-0.2,2.7-0.4l6.9-13.9h1.4l-7.2,14.5v0c0,0,0,0,0,0l-4.3,8.7c-1.2-0.1-3.6-0.3-6.5-0.3
				c-6.3,0-14.7,1-19.8,5.5c0,0-0.7,0.6-1.5,1.7L209.9,258.9z"/>
		</g>
	</g>
</g>
</svg>
