<?xml version="1.0" encoding="utf-8"?>
<!-- Generator: Adobe Illustrator 19.1.0, SVG Export Plug-In . SVG Version: 6.00 Build 0)  -->
<svg version="1.1" id="Layer_1" xmlns="http://www.w3.org/2000/svg" xmlns:xlink="http://www.w3.org/1999/xlink" x="0px" y="0px"
	 viewBox="0 0 117 61" style="enable-background:new 0 0 117 61;" xml:space="preserve">
<style type="text/css">
	.st0{fill:url(#SVGID_1_);stroke:#000001;stroke-miterlimit:10;}
	.st1{fill:#000001;}
	.st2{fill:url(#SVGID_2_);}
	.st3{fill:url(#SVGID_3_);}
	.st4{fill:url(#SVGID_4_);}
	.st5{fill:url(#SVGID_5_);}
	.st6{fill:url(#SVGID_6_);}
	.st7{fill:url(#SVGID_7_);}
	.st8{fill:url(#SVGID_8_);}
	.st9{fill:url(#SVGID_9_);}
	.st10{fill:url(#SVGID_10_);}
	.st11{fill:url(#SVGID_11_);}
	.st12{fill:url(#SVGID_12_);}
	.st13{fill:url(#SVGID_13_);}
	.st14{fill:url(#SVGID_14_);}
	.st15{fill:url(#SVGID_15_);}
</style>
<linearGradient id="SVGID_1_" gradientUnits="userSpaceOnUse" x1="2.916" y1="-1.723" x2="112.9157" y2="62.9438">
	<stop  offset="0" style="stop-color:#816829"/>
	<stop  offset="0.2077" style="stop-color:#C5A231"/>
	<stop  offset="0.4393" style="stop-color:#8A702B"/>
	<stop  offset="0.757" style="stop-color:#F0E373"/>
	<stop  offset="0.92" style="stop-color:#644D1F"/>
</linearGradient>
<polygon class="st0" points="103.3,35.7 113.2,30.9 103.3,26 103.3,12.2 75,12.2 58.3,4 41.6,12.2 13.3,12.2 13.3,26 3.5,30.9 
	13.3,35.7 13.3,49.5 41.6,49.5 58.3,57.7 75,49.5 103.3,49.5 "/>
<rect x="16.3" y="15.2" class="st1" width="84" height="31.3"/>
<g>
	<linearGradient id="SVGID_2_" gradientUnits="userSpaceOnUse" x1="18.2038" y1="29.7061" x2="100.5367" y2="-3.2939">
		<stop  offset="0" style="stop-color:#816829"/>
		<stop  offset="0.2077" style="stop-color:#C5A231"/>
		<stop  offset="0.4393" style="stop-color:#8A702B"/>
		<stop  offset="0.757" style="stop-color:#F0E373"/>
		<stop  offset="0.92" style="stop-color:#644D1F"/>
	</linearGradient>
	<path class="st2" d="M29.6,23.9c-0.1,1.3-0.1,1.9-0.1,2.5c0,1,0.3,1.5,1.1,1.6c0.3,0,0.4,0.1,0.4,0.3c0,0.1-0.1,0.2-0.3,0.2
		c-0.1,0-0.2,0-0.3,0c-0.3-0.1-0.6-0.1-1-0.1c-0.4,0-0.8,0-1.2,0.1c-0.1,0-0.3,0-0.4,0c-0.2,0-0.2-0.1-0.2-0.2
		c0-0.1,0.1-0.2,0.3-0.2c0.5-0.1,0.8-0.4,0.9-0.9c0.1-0.5,0.3-4.2,0.3-5.8c0-1.3-0.4-1.9-1.3-2c-0.3,0-0.4-0.1-0.4-0.3
		c0-0.1,0.1-0.2,0.3-0.2c0.1,0,0.2,0,0.3,0c0.4,0,0.6,0,0.8,0c0.2,0,0.4,0,0.7,0c0.1,0,0.2,0,0.3,0c0.3,0,0.3,0,1.5,2.5
		c0.2,0.5,1.4,3,1.7,3.9l0.3,0.7c0.1,0.1,0.1,0.2,0.2,0.2c0.1,0,0.1,0,0.3-0.4c0.4-0.6,2.4-4.8,2.8-5.9c0.3-0.7,0.5-0.9,0.7-0.9
		c0.1,0,0.2,0,0.4,0c0.1,0,0.3,0,0.5,0c0.2,0,0.3,0,0.4,0c0.2,0,0.4,0,0.4,0c0.1,0,0.3,0.1,0.3,0.2c0,0.1-0.1,0.2-0.3,0.3
		c-0.6,0.2-0.8,0.3-1,0.8c-0.1,0.2-0.1,0.4-0.1,1c0,0.5,0.2,5,0.3,5.5c0.1,0.6,0.1,0.8,0.3,1c0.2,0.2,0.5,0.4,0.8,0.4
		c0.3,0,0.4,0.1,0.4,0.2c0,0.1-0.1,0.2-0.3,0.2c-0.1,0-0.2,0-0.4,0c-0.4-0.1-0.9-0.1-1.5-0.1c-0.5,0-0.9,0-1.2,0.1
		c-0.1,0-0.3,0-0.4,0c-0.1,0-0.2-0.1-0.2-0.2c0-0.1,0.1-0.2,0.3-0.3c0.7-0.3,0.7-0.4,0.7-2c0-1,0-1.6-0.1-2.7c0-0.7,0-1.2,0-1.4
		c0-0.2,0-0.3-0.1-0.3c-0.1,0-0.1,0-0.6,1c-0.8,1.4-2.2,4.3-2.7,5.4c-0.1,0.2-0.2,0.3-0.3,0.3s-0.2-0.2-0.5-1
		c-0.2-0.6-0.5-1.1-0.7-1.7c-0.3-0.5-0.1-0.3-0.4-0.8c-0.6-1.3-1.1-2.3-1.2-2.8c-0.1-0.3-0.2-0.4-0.3-0.4c-0.1,0-0.1,0-0.1,0.9
		L29.6,23.9z"/>
	<linearGradient id="SVGID_3_" gradientUnits="userSpaceOnUse" x1="20.0455" y1="34.2979" x2="102.3752" y2="1.2992">
		<stop  offset="0" style="stop-color:#816829"/>
		<stop  offset="0.2077" style="stop-color:#C5A231"/>
		<stop  offset="0.4393" style="stop-color:#8A702B"/>
		<stop  offset="0.757" style="stop-color:#F0E373"/>
		<stop  offset="0.92" style="stop-color:#644D1F"/>
	</linearGradient>
	<path class="st3" d="M45.1,18.1c0-0.1,0.1-0.1,0.1-0.1c0.1,0,0.1,0,0.3,0.7c0.1,0.2,0.3,0.6,0.6,1.3c0,0.1,0.8,2,2.3,5.6
		c0.8,2,1,2.2,1.9,2.3c0.2,0,0.3,0.1,0.3,0.2c0,0.1-0.1,0.2-0.3,0.2c-0.1,0-0.1,0-0.4,0c-0.4-0.1-0.9-0.1-1.4-0.1
		c-0.6,0-1.1,0-1.4,0.1c-0.2,0-0.4,0.1-0.5,0.1c-0.1,0-0.2-0.1-0.2-0.2c0-0.2,0-0.2,0.5-0.3c0.3-0.1,0.5-0.4,0.5-0.8
		c0-0.4-0.1-0.8-0.6-1.8c-0.2-0.4-0.3-0.6-0.5-0.7c-0.2-0.1-0.5-0.1-2.3-0.1c-1.1,0-1.3,0-1.5,0.3c-0.4,0.5-0.8,1.7-0.8,2.1
		c0,0.6,0.5,1,1.3,1c0.2,0,0.3,0.1,0.3,0.2c0,0.1-0.1,0.2-0.3,0.2c-0.1,0-0.2,0-0.4,0c-0.6-0.1-1.1-0.1-1.7-0.1
		c-0.4,0-0.7,0-0.9,0.1c-0.1,0-0.2,0-0.3,0c-0.1,0-0.2-0.1-0.2-0.2c0-0.1,0-0.2,0.2-0.2c0.5-0.3,0.8-0.6,1.2-1.7
		c2.4-5.4,3.1-6.8,3.8-8L45.1,18.1z M43.8,22c-0.7,1.5-0.7,1.5-0.7,1.7c0,0.1,0.1,0.2,0.3,0.2c0.1,0,0.2,0,0.8,0c2,0,2,0,2-0.2
		c0-0.1-0.2-0.6-1-2.3c-0.1-0.2-0.2-0.4-0.3-0.6c-0.1-0.2-0.1-0.3-0.2-0.3C44.5,20.4,44.4,20.7,43.8,22z"/>
	<linearGradient id="SVGID_4_" gradientUnits="userSpaceOnUse" x1="20.9985" y1="36.6782" x2="103.3308" y2="3.6784">
		<stop  offset="0" style="stop-color:#816829"/>
		<stop  offset="0.2077" style="stop-color:#C5A231"/>
		<stop  offset="0.4393" style="stop-color:#8A702B"/>
		<stop  offset="0.757" style="stop-color:#F0E373"/>
		<stop  offset="0.92" style="stop-color:#644D1F"/>
	</linearGradient>
	<path class="st4" d="M51.7,28.3c-0.1,0-0.3,0-0.3,0c-0.1,0-0.2-0.1-0.2-0.2c0-0.2,0.1-0.2,0.4-0.3c0.5-0.2,0.6-0.3,0.6-1.5
		c0-0.5,0-2.7,0-4.1c0-2,0-2.2-0.2-2.5c-0.2-0.3-0.6-0.5-1-0.5c-0.3,0-0.5-0.1-0.5-0.3c0-0.1,0.1-0.2,0.3-0.2c0.1,0,0.2,0,0.3,0
		c0.3,0,0.7,0.1,1.2,0.1c0.6,0,1.3,0,2.2-0.1c0.7-0.1,1.4-0.1,1.8-0.1c0.8,0,1.6,0.2,2.3,0.7c1.3,0.9,2.1,2.3,2.1,4
		c0,1.9-0.9,3.5-2.4,4.4c-0.7,0.4-1.7,0.7-2.6,0.7c-0.2,0-0.9-0.1-1.8-0.1c-0.4,0-0.8-0.1-1.2-0.1C52.3,28.2,52,28.3,51.7,28.3z
		 M53.6,19.5c-0.1,0.3-0.2,1.5-0.2,4.3c0,2.1,0,2.9,0.2,3.2c0.2,0.5,0.8,0.8,1.7,0.8c2.4,0,3.9-1.5,3.9-4c0-1.6-0.6-3-1.7-3.8
		c-0.8-0.6-1.4-0.8-2.7-0.8C54.1,19.2,53.7,19.3,53.6,19.5z"/>
	<linearGradient id="SVGID_5_" gradientUnits="userSpaceOnUse" x1="22.5351" y1="40.5136" x2="104.8686" y2="7.5134">
		<stop  offset="0" style="stop-color:#816829"/>
		<stop  offset="0.2077" style="stop-color:#C5A231"/>
		<stop  offset="0.4393" style="stop-color:#8A702B"/>
		<stop  offset="0.757" style="stop-color:#F0E373"/>
		<stop  offset="0.92" style="stop-color:#644D1F"/>
	</linearGradient>
	<path class="st5" d="M63.9,18.8l1.4,0l3-0.1c0.1,0,0.2,0,0.3,0c0.2,0,0.2,0.1,0.2,0.3v0.2c0,0.1,0,0.2,0,0.2c0,0.2,0,0.5,0,0.7
		c0,0.3,0.1,0.6,0.1,0.7c0,0.2-0.1,0.3-0.2,0.3c-0.1,0-0.2-0.1-0.2-0.3c-0.1-0.6-0.1-0.8-0.3-1c-0.3-0.4-1.1-0.5-2.4-0.5
		c-0.9,0-1.1,0-1.1,0.3c-0.1,0.2-0.1,0.7-0.1,2c0,1.3,0,1.4,0.7,1.4c0.9,0,1.4,0,1.7-0.1c0.3-0.1,0.5-0.4,0.6-1
		c0-0.2,0.1-0.3,0.2-0.3c0.1,0,0.2,0.1,0.2,0.2c0,0.1,0,0.3,0,0.5c0,0.1,0,0.4,0,0.6c0,0.6,0,1.1,0.1,1.5c0,0.2,0,0.3,0,0.4
		c0,0.2-0.1,0.3-0.2,0.3c-0.1,0-0.2-0.1-0.2-0.4c0-0.9-0.4-1.1-2-1.1c-0.9,0-0.9,0-1,0.2c-0.1,0.1-0.1,0.6-0.1,1.9
		c0,0.9,0.1,1.4,0.2,1.6c0.1,0.2,0.5,0.4,1.2,0.4c0.8,0,1.5-0.2,2.2-0.5c0.6-0.3,0.9-0.6,1.1-1.2c0.1-0.2,0.1-0.3,0.2-0.3
		c0.1,0,0.2,0.1,0.2,0.4c0,1.2-0.9,2.3-2,2.3c-0.3,0-0.6,0-1-0.1c-0.7-0.1-1.4-0.1-2.1-0.1c-0.7,0-1.3,0-1.6,0.1
		c-0.2,0-0.3,0.1-0.4,0.1c-0.1,0-0.2-0.1-0.2-0.2c0-0.2,0.1-0.2,0.4-0.3c0.3-0.1,0.5-0.4,0.6-0.8c0-0.3,0.1-1.7,0.1-3.8
		c0-3,0-3.3-0.2-3.6c-0.2-0.3-0.5-0.4-1-0.4c-0.3,0-0.4-0.1-0.4-0.2c0-0.2,0.2-0.3,0.4-0.3c0.1,0,0.2,0,0.4,0c0.3,0,0.6,0,1.1,0
		H63.9z"/>
	<linearGradient id="SVGID_6_" gradientUnits="userSpaceOnUse" x1="24.0672" y1="44.3415" x2="106.4039" y2="11.34">
		<stop  offset="0" style="stop-color:#816829"/>
		<stop  offset="0.2077" style="stop-color:#C5A231"/>
		<stop  offset="0.4393" style="stop-color:#8A702B"/>
		<stop  offset="0.757" style="stop-color:#F0E373"/>
		<stop  offset="0.92" style="stop-color:#644D1F"/>
	</linearGradient>
	<path class="st6" d="M75.2,22.4c0-1.3,0-1.4,0-1.6c0-0.7-0.1-1.1-0.2-1.2c-0.1-0.2-0.5-0.3-0.9-0.3c-0.4,0-0.5-0.1-0.5-0.3
		c0-0.1,0.1-0.2,0.3-0.2c0.1,0,0.2,0,0.4,0c0.6,0.1,1.3,0.1,1.8,0.1c0.2,0,0.5,0,0.8-0.1c0.2,0,0.4-0.1,0.5-0.1
		c0.2,0,0.3,0.1,0.3,0.2c0,0.1-0.1,0.2-0.3,0.2c-0.6,0.1-0.8,0.4-0.8,1.3l0,1.8c0,0.9,0,1.9,0,3.2c0,1.3,0,1.6,0.1,1.9
		c0.1,0.4,0.5,0.6,1,0.6c0.3,0,0.5,0.1,0.5,0.2c0,0.1-0.2,0.3-0.3,0.3c-0.1,0-0.3,0-0.5-0.1c-0.3-0.1-0.8-0.1-1.3-0.1
		c-0.5,0-1,0-1.3,0.1c-0.1,0-0.3,0.1-0.4,0.1c-0.1,0-0.2-0.1-0.2-0.2c0-0.1,0.1-0.2,0.3-0.3c0.5-0.1,0.7-0.4,0.7-1.5L75.2,22.4z"/>
	<linearGradient id="SVGID_7_" gradientUnits="userSpaceOnUse" x1="25.0813" y1="46.8663" x2="107.4149" y2="13.866">
		<stop  offset="0" style="stop-color:#816829"/>
		<stop  offset="0.2077" style="stop-color:#C5A231"/>
		<stop  offset="0.4393" style="stop-color:#8A702B"/>
		<stop  offset="0.757" style="stop-color:#F0E373"/>
		<stop  offset="0.92" style="stop-color:#644D1F"/>
	</linearGradient>
	<path class="st7" d="M80.8,21.8c0,0.3,0,0.8,0,1.4c0,2.3,0,3.5,0.1,3.9c0.1,0.6,0.5,0.8,1.4,0.9c0.2,0,0.3,0.1,0.3,0.2
		c0,0.1-0.1,0.2-0.3,0.2c-0.1,0-0.2,0-0.4,0c-0.3-0.1-0.7-0.1-1.1-0.1c-0.5,0-0.9,0-1.3,0.1c-0.2,0-0.3,0-0.4,0
		c-0.2,0-0.3-0.1-0.3-0.2c0-0.1,0.1-0.2,0.4-0.3c0.5-0.2,0.7-0.5,0.8-1.5c0.1-0.7,0.1-3.6,0.1-5.1c0-1.4-0.4-2-1.4-2
		c-0.3,0-0.5-0.1-0.5-0.3c0-0.1,0.1-0.2,0.3-0.2c0.1,0,0.2,0,0.3,0c0.2,0,0.5,0,0.9,0c0.3,0,0.6,0,0.7-0.1c0.1,0,0.2,0,0.2,0
		c0.1,0,0.3,0.1,0.4,0.3l0.4,0.5l0.2,0.3c2.1,2.5,3,3.6,4.7,5.7c0.2,0.3,0.4,0.5,0.5,0.5c0.1,0,0.1-0.1,0.1-0.2
		c0-0.7,0.1-2.4,0.1-3.1c0-1.7-0.1-2.5-0.4-2.9c-0.2-0.4-0.5-0.5-1.2-0.6c-0.2,0-0.3-0.1-0.3-0.2c0-0.1,0.1-0.2,0.3-0.2
		c0.1,0,0.2,0,0.4,0c0.6,0.1,1.2,0.1,1.7,0.1c0.3,0,0.6,0,0.8-0.1c0.1,0,0.2,0,0.3,0c0.1,0,0.2,0.1,0.2,0.2c0,0.1-0.1,0.2-0.3,0.2
		c-0.6,0.2-0.8,0.4-0.8,0.9c0,0.2-0.1,1.4-0.1,2.6c0,3.1,0,4.8,0,5.2c0,0.4-0.1,0.6-0.2,0.6c-0.1,0-0.3-0.1-0.5-0.4
		c-0.3-0.3-0.5-0.7-0.8-1c-0.8-0.9-1.5-1.8-2.2-2.7c-0.5-0.6-1-1.1-1.4-1.7c-0.5-0.6-0.3-0.3-0.8-0.8c-0.2-0.2-0.4-0.4-0.5-0.5
		C81,21.1,80.9,21,80.8,21c-0.1,0-0.1,0.1-0.1,0.2V21.8z"/>
	<linearGradient id="SVGID_8_" gradientUnits="userSpaceOnUse" x1="21.663" y1="38.3368" x2="103.9966" y2="5.3365">
		<stop  offset="0" style="stop-color:#816829"/>
		<stop  offset="0.2077" style="stop-color:#C5A231"/>
		<stop  offset="0.4393" style="stop-color:#8A702B"/>
		<stop  offset="0.757" style="stop-color:#F0E373"/>
		<stop  offset="0.92" style="stop-color:#644D1F"/>
	</linearGradient>
	<path class="st8" d="M25.1,40.8c0,0.8,0.3,1.1,1.4,1.2c0.2,0,0.4,0.1,0.4,0.2c0,0.1-0.1,0.2-0.3,0.2c-0.1,0-0.2,0-0.3,0
		c-0.5-0.1-1-0.1-1.7-0.1c-0.7,0-1.3,0-1.8,0.1c-0.1,0-0.2,0-0.3,0c-0.2,0-0.3-0.1-0.3-0.2c0-0.1,0.2-0.2,0.5-0.3
		c0.9-0.1,1.1-0.4,1.1-1.4c0-0.7,0-1.4-0.1-6c0-0.8-0.1-1-0.9-1c-1.7,0-2.4,0.4-2.5,1.5c0,0.3-0.1,0.5-0.3,0.5
		c-0.1,0-0.2-0.1-0.2-0.3c0-0.1,0-0.3,0-0.5c0.1-0.6,0.2-1,0.2-1.1v-0.5c0-0.2,0.1-0.3,0.5-0.3c0.1,0,0.2,0,0.4,0
		c2.9,0.1,3.4,0.1,4.4,0.1c0.9,0,1.4,0,2.5-0.1c0.2,0,0.4,0,0.5,0c0.3,0,0.3,0,0.4,0.7l0.1,0.4l0,0.2c0.1,0.4,0.1,0.5,0.1,0.7
		c0,0.3-0.1,0.4-0.3,0.4c-0.1,0-0.2-0.1-0.2-0.4c0-0.4-0.3-0.8-0.6-1.1c-0.3-0.2-0.8-0.3-1.7-0.3c-0.6,0-0.9,0.1-1,0.4
		c-0.1,0.2-0.1,0.8-0.1,3.2c0,0.5,0,1.3,0,2.6L25.1,40.8z"/>
	<linearGradient id="SVGID_9_" gradientUnits="userSpaceOnUse" x1="23.221" y1="42.2237" x2="105.5546" y2="9.2234">
		<stop  offset="0" style="stop-color:#816829"/>
		<stop  offset="0.2077" style="stop-color:#C5A231"/>
		<stop  offset="0.4393" style="stop-color:#8A702B"/>
		<stop  offset="0.757" style="stop-color:#F0E373"/>
		<stop  offset="0.92" style="stop-color:#644D1F"/>
	</linearGradient>
	<path class="st9" d="M29.8,32.8c0.7,0.1,1.4,0.1,1.9,0.1c0.3,0,0.6,0,0.9-0.1c0.2,0,0.3-0.1,0.4-0.1c0.1,0,0.2,0.1,0.2,0.2
		c0,0.2-0.1,0.2-0.4,0.3c-0.5,0.1-0.6,0.2-0.7,1c0,1-0.1,1.5-0.1,2.2c0,0.4,0.1,0.5,0.4,0.5c0.2,0,1.3,0,2.7,0c1.7,0,1.7,0,1.8-0.5
		c0-0.5,0.1-1.3,0.1-2.1c0-1-0.2-1.2-1.1-1.2c-0.2,0-0.3-0.1-0.3-0.2c0-0.1,0.1-0.2,0.2-0.2c0.1,0,0.3,0,0.5,0
		c0.4,0.1,0.9,0.1,1.5,0.1c0.4,0,0.7,0,1-0.1c0.3-0.1,0.3-0.1,0.4-0.1c0.1,0,0.2,0.1,0.2,0.2c0,0.1-0.1,0.2-0.3,0.2
		c-0.8,0.2-0.8,0.2-0.8,3.7c0,3.8,0.1,4.4,0.4,4.7c0.2,0.2,0.3,0.2,0.9,0.3c0.2,0,0.3,0.1,0.3,0.3c0,0.1-0.1,0.2-0.3,0.2
		c-0.1,0-0.2,0-0.3,0c-0.4-0.1-1-0.1-1.6-0.1c-0.5,0-0.9,0-1.2,0.1c-0.1,0-0.3,0-0.3,0c-0.2,0-0.3-0.1-0.3-0.2
		c0-0.1,0.1-0.2,0.4-0.3c0.4-0.1,0.5-0.3,0.6-0.7c0-0.4,0.1-1.9,0.1-2.8c0-0.7-0.1-0.8-1.1-0.8c-1,0-3.2,0-3.4,0.1
		c-0.4,0-0.4,0.1-0.4,2.2c0,0.8,0.1,1.3,0.2,1.6c0.1,0.3,0.5,0.4,1.1,0.5c0.3,0,0.4,0.1,0.4,0.2c0,0.1-0.1,0.2-0.3,0.2
		c-0.1,0-0.3,0-0.4,0c-0.7-0.1-1.3-0.1-1.8-0.1c-0.3,0-0.6,0-1,0.1c-0.2,0-0.3,0.1-0.4,0.1c-0.1,0-0.2-0.1-0.2-0.2
		c0-0.1,0.1-0.2,0.4-0.3c0.5-0.1,0.6-0.4,0.7-1.1c0-0.7,0.1-4,0.1-5.6c0-1.8-0.1-2-1.1-2c-0.4,0-0.5-0.1-0.5-0.3
		c0-0.1,0.1-0.2,0.3-0.2L29.8,32.8z"/>
	<linearGradient id="SVGID_10_" gradientUnits="userSpaceOnUse" x1="24.9701" y1="46.5879" x2="107.3033" y2="13.5878">
		<stop  offset="0" style="stop-color:#816829"/>
		<stop  offset="0.2077" style="stop-color:#C5A231"/>
		<stop  offset="0.4393" style="stop-color:#8A702B"/>
		<stop  offset="0.757" style="stop-color:#F0E373"/>
		<stop  offset="0.92" style="stop-color:#644D1F"/>
	</linearGradient>
	<path class="st10" d="M45.7,32.1c0-0.1,0.1-0.1,0.1-0.1c0.1,0,0.1,0,0.3,0.7c0.1,0.2,0.3,0.6,0.6,1.3c0,0.1,0.8,2,2.3,5.6
		c0.8,2,1,2.2,1.9,2.3c0.2,0,0.3,0.1,0.3,0.2c0,0.1-0.1,0.2-0.3,0.2c-0.1,0-0.1,0-0.4,0c-0.4-0.1-0.9-0.1-1.4-0.1
		c-0.6,0-1.1,0-1.4,0.1c-0.2,0-0.4,0.1-0.5,0.1c-0.1,0-0.2-0.1-0.2-0.2c0-0.2,0-0.2,0.5-0.3c0.3-0.1,0.5-0.4,0.5-0.8
		c0-0.4-0.1-0.8-0.6-1.8c-0.2-0.4-0.3-0.6-0.5-0.7c-0.2-0.1-0.5-0.1-2.3-0.1c-1.1,0-1.3,0-1.5,0.3c-0.4,0.5-0.8,1.7-0.8,2.1
		c0,0.6,0.5,1,1.3,1c0.2,0,0.3,0.1,0.3,0.2c0,0.1-0.1,0.2-0.3,0.2c-0.1,0-0.2,0-0.3,0c-0.6-0.1-1.1-0.1-1.7-0.1
		c-0.4,0-0.7,0-0.9,0.1c-0.1,0-0.2,0-0.3,0c-0.1,0-0.2-0.1-0.2-0.2c0-0.1,0-0.2,0.2-0.2c0.5-0.3,0.8-0.6,1.2-1.7
		c2.4-5.4,3.1-6.8,3.8-8L45.7,32.1z M44.4,36c-0.7,1.5-0.7,1.5-0.7,1.7c0,0.1,0.1,0.2,0.3,0.2c0.1,0,0.2,0,0.8,0c2,0,2,0,2-0.2
		c0-0.1-0.2-0.6-1-2.3c-0.1-0.2-0.2-0.4-0.3-0.6c-0.1-0.2-0.1-0.3-0.2-0.3C45.2,34.4,45.1,34.7,44.4,36z"/>
	<linearGradient id="SVGID_11_" gradientUnits="userSpaceOnUse" x1="25.8002" y1="48.6633" x2="108.1379" y2="15.6614">
		<stop  offset="0" style="stop-color:#816829"/>
		<stop  offset="0.2077" style="stop-color:#C5A231"/>
		<stop  offset="0.4393" style="stop-color:#8A702B"/>
		<stop  offset="0.757" style="stop-color:#F0E373"/>
		<stop  offset="0.92" style="stop-color:#644D1F"/>
	</linearGradient>
	<path class="st11" d="M52.8,36.4c0-1.3,0-1.4,0-1.6c0-0.7-0.1-1.1-0.2-1.2c-0.1-0.2-0.5-0.3-0.9-0.3c-0.4,0-0.5-0.1-0.5-0.3
		c0-0.1,0.1-0.2,0.3-0.2c0.1,0,0.2,0,0.4,0c0.6,0.1,1.3,0.1,1.8,0.1c0.2,0,0.5,0,0.8-0.1c0.2,0,0.4-0.1,0.5-0.1
		c0.2,0,0.3,0.1,0.3,0.2c0,0.1-0.1,0.2-0.3,0.2c-0.6,0.1-0.8,0.4-0.8,1.3l0,1.8c0,0.9,0,1.9,0,3.2c0,1.3,0,1.6,0.1,1.9
		c0.1,0.4,0.5,0.6,1,0.6c0.3,0,0.5,0.1,0.5,0.2c0,0.1-0.2,0.3-0.3,0.3c-0.1,0-0.3,0-0.5-0.1c-0.3-0.1-0.8-0.1-1.3-0.1
		c-0.5,0-1,0-1.3,0.1c-0.1,0-0.3,0.1-0.4,0.1c-0.1,0-0.2-0.1-0.2-0.2c0-0.1,0.1-0.2,0.3-0.3c0.5-0.1,0.7-0.4,0.7-1.5L52.8,36.4z"/>
	<linearGradient id="SVGID_12_" gradientUnits="userSpaceOnUse" x1="26.6562" y1="50.7925" x2="108.9875" y2="17.7932">
		<stop  offset="0" style="stop-color:#816829"/>
		<stop  offset="0.2077" style="stop-color:#C5A231"/>
		<stop  offset="0.4393" style="stop-color:#8A702B"/>
		<stop  offset="0.757" style="stop-color:#F0E373"/>
		<stop  offset="0.92" style="stop-color:#644D1F"/>
	</linearGradient>
	<path class="st12" d="M64,40.4c0,0.5-0.3,1.1-0.6,1.5c-0.4,0.4-0.9,0.6-1.3,0.6c-0.4,0-0.9,0-1.6-0.1c-0.7-0.1-1.4-0.1-2-0.1
		c-0.4,0-0.8,0-1.1,0.1c-0.2,0-0.3,0.1-0.4,0.1c-0.1,0-0.2-0.1-0.2-0.2c0-0.1,0.1-0.1,0.2-0.2c0.4-0.2,0.6-0.5,0.7-1
		c0.1-0.8,0.2-5,0.2-6.5c0-0.8-0.3-1.1-1.3-1.3c-0.2,0-0.3-0.1-0.3-0.2c0-0.1,0.1-0.2,0.3-0.2c0.1,0,0.2,0,0.3,0
		c0.5,0.1,1,0.1,1.5,0.1c0.5,0,0.9,0,1.4-0.1c0.1,0,0.2,0,0.3,0c0.2,0,0.3,0.1,0.3,0.2c0,0.1-0.1,0.2-0.4,0.3
		c-0.5,0.2-0.7,0.5-0.7,1.6c0,0.4-0.1,5-0.1,5.5c0,0.6,0.1,1,0.2,1.1c0.1,0.1,0.6,0.2,1.2,0.2c0.8,0,1.4-0.1,1.9-0.3
		c0.5-0.2,0.7-0.3,1.2-1.1c0.1-0.1,0.2-0.2,0.2-0.2C64,40.2,64,40.3,64,40.4z"/>
	<linearGradient id="SVGID_13_" gradientUnits="userSpaceOnUse" x1="28.27" y1="54.8209" x2="110.6031" y2="21.8208">
		<stop  offset="0" style="stop-color:#816829"/>
		<stop  offset="0.2077" style="stop-color:#C5A231"/>
		<stop  offset="0.4393" style="stop-color:#8A702B"/>
		<stop  offset="0.757" style="stop-color:#F0E373"/>
		<stop  offset="0.92" style="stop-color:#644D1F"/>
	</linearGradient>
	<path class="st13" d="M69.6,32.1c0-0.1,0.1-0.1,0.1-0.1c0.1,0,0.1,0,0.3,0.7c0.1,0.2,0.3,0.6,0.6,1.3c0,0.1,0.8,2,2.3,5.6
		c0.8,2,1,2.2,1.9,2.3c0.2,0,0.3,0.1,0.3,0.2c0,0.1-0.1,0.2-0.3,0.2c-0.1,0-0.1,0-0.4,0c-0.4-0.1-0.9-0.1-1.4-0.1
		c-0.6,0-1.1,0-1.4,0.1c-0.2,0-0.4,0.1-0.5,0.1c-0.1,0-0.2-0.1-0.2-0.2c0-0.2,0-0.2,0.5-0.3c0.3-0.1,0.5-0.4,0.5-0.8
		c0-0.4-0.1-0.8-0.6-1.8c-0.2-0.4-0.3-0.6-0.5-0.7c-0.2-0.1-0.5-0.1-2.3-0.1c-1.1,0-1.3,0-1.5,0.3c-0.4,0.5-0.8,1.7-0.8,2.1
		c0,0.6,0.5,1,1.3,1c0.2,0,0.3,0.1,0.3,0.2c0,0.1-0.1,0.2-0.3,0.2c-0.1,0-0.2,0-0.4,0c-0.6-0.1-1.1-0.1-1.7-0.1
		c-0.4,0-0.7,0-0.9,0.1c-0.1,0-0.2,0-0.3,0c-0.1,0-0.2-0.1-0.2-0.2c0-0.1,0-0.2,0.2-0.2c0.5-0.3,0.8-0.6,1.2-1.7
		c2.4-5.4,3.1-6.8,3.8-8L69.6,32.1z M68.3,36c-0.7,1.5-0.7,1.5-0.7,1.7c0,0.1,0.1,0.2,0.3,0.2c0.1,0,0.2,0,0.8,0c2,0,2,0,2-0.2
		c0-0.1-0.2-0.6-1-2.3c-0.1-0.2-0.2-0.4-0.3-0.6c-0.1-0.2-0.1-0.3-0.2-0.3C69,34.4,68.9,34.7,68.3,36z"/>
	<linearGradient id="SVGID_14_" gradientUnits="userSpaceOnUse" x1="29.4231" y1="57.7006" x2="111.7578" y2="24.6998">
		<stop  offset="0" style="stop-color:#816829"/>
		<stop  offset="0.2077" style="stop-color:#C5A231"/>
		<stop  offset="0.4393" style="stop-color:#8A702B"/>
		<stop  offset="0.757" style="stop-color:#F0E373"/>
		<stop  offset="0.92" style="stop-color:#644D1F"/>
	</linearGradient>
	<path class="st14" d="M77.2,35.8c0,0.3,0,0.8,0,1.4c0,2.3,0,3.5,0.1,3.9c0.1,0.6,0.5,0.8,1.4,0.9c0.2,0,0.3,0.1,0.3,0.2
		c0,0.1-0.1,0.2-0.3,0.2c-0.1,0-0.2,0-0.4,0c-0.3-0.1-0.7-0.1-1.1-0.1c-0.5,0-0.9,0-1.3,0.1c-0.2,0-0.3,0-0.4,0
		c-0.2,0-0.3-0.1-0.3-0.2c0-0.1,0.1-0.2,0.4-0.3c0.5-0.2,0.7-0.5,0.8-1.5c0.1-0.7,0.1-3.6,0.1-5.1c0-1.4-0.4-2-1.4-2
		c-0.3,0-0.5-0.1-0.5-0.3c0-0.1,0.1-0.2,0.3-0.2c0.1,0,0.2,0,0.3,0c0.2,0,0.5,0,0.9,0c0.3,0,0.6,0,0.7-0.1c0.1,0,0.2,0,0.2,0
		c0.1,0,0.3,0.1,0.4,0.3l0.4,0.5l0.2,0.3c2.1,2.5,3,3.6,4.7,5.7c0.2,0.3,0.4,0.5,0.5,0.5c0.1,0,0.1-0.1,0.1-0.2
		c0-0.7,0.1-2.4,0.1-3.1c0-1.7-0.1-2.5-0.4-2.9c-0.2-0.4-0.5-0.5-1.2-0.6c-0.2,0-0.3-0.1-0.3-0.2c0-0.1,0.1-0.2,0.3-0.2
		c0.1,0,0.2,0,0.4,0c0.6,0.1,1.2,0.1,1.7,0.1c0.3,0,0.6,0,0.8-0.1c0.1,0,0.2,0,0.3,0c0.1,0,0.2,0.1,0.2,0.2c0,0.1-0.1,0.2-0.3,0.2
		c-0.6,0.2-0.8,0.4-0.8,0.9c0,0.2-0.1,1.4-0.1,2.6c0,3.1,0,4.8,0,5.2c0,0.4-0.1,0.6-0.2,0.6c-0.1,0-0.3-0.1-0.5-0.4
		c-0.3-0.3-0.5-0.7-0.8-1c-0.8-0.9-1.5-1.8-2.2-2.7c-0.5-0.6-1-1.1-1.4-1.7c-0.5-0.6-0.3-0.3-0.8-0.8c-0.2-0.2-0.4-0.4-0.5-0.5
		c-0.1-0.2-0.3-0.3-0.3-0.3c-0.1,0-0.1,0.1-0.1,0.2V35.8z"/>
	<linearGradient id="SVGID_15_" gradientUnits="userSpaceOnUse" x1="30.755" y1="61.0203" x2="113.0879" y2="28.0203">
		<stop  offset="0" style="stop-color:#816829"/>
		<stop  offset="0.2077" style="stop-color:#C5A231"/>
		<stop  offset="0.4393" style="stop-color:#8A702B"/>
		<stop  offset="0.757" style="stop-color:#F0E373"/>
		<stop  offset="0.92" style="stop-color:#644D1F"/>
	</linearGradient>
	<path class="st15" d="M87.3,42.3c-0.1,0-0.3,0-0.3,0c-0.1,0-0.2-0.1-0.2-0.2c0-0.2,0.1-0.2,0.4-0.3c0.5-0.2,0.6-0.3,0.6-1.5
		c0-0.5,0-2.7,0-4.1c0-2,0-2.2-0.2-2.5c-0.2-0.3-0.6-0.5-1-0.5c-0.4,0-0.5-0.1-0.5-0.3c0-0.1,0.1-0.2,0.3-0.2c0.1,0,0.2,0,0.3,0
		c0.3,0,0.7,0.1,1.2,0.1c0.6,0,1.3,0,2.2-0.1c0.7-0.1,1.4-0.1,1.8-0.1c0.8,0,1.6,0.2,2.3,0.7c1.3,0.9,2.1,2.3,2.1,4
		c0,1.9-0.9,3.5-2.4,4.4c-0.7,0.4-1.7,0.7-2.6,0.7c-0.2,0-0.9-0.1-1.8-0.1c-0.4,0-0.8-0.1-1.2-0.1C87.9,42.2,87.5,42.3,87.3,42.3z
		 M89.2,33.5c-0.1,0.3-0.2,1.5-0.2,4.3c0,2.1,0,2.9,0.2,3.2c0.2,0.5,0.8,0.8,1.7,0.8c2.4,0,3.9-1.5,3.9-4c0-1.6-0.6-3-1.7-3.8
		c-0.8-0.6-1.4-0.8-2.7-0.8C89.6,33.2,89.3,33.3,89.2,33.5z"/>
</g>
</svg>
