<?xml version="1.0" encoding="utf-8"?>
<!-- Generator: Adobe Illustrator 19.1.0, SVG Export Plug-In . SVG Version: 6.00 Build 0)  -->
<svg version="1.1" id="ART" xmlns="http://www.w3.org/2000/svg" xmlns:xlink="http://www.w3.org/1999/xlink" x="0px" y="0px"
	 viewBox="0 0 163.3 24" style="enable-background:new 0 0 163.3 24;" xml:space="preserve">
<style type="text/css">
	.st0{fill:#BE9F60;}
</style>
<g>
	<g>
		<path class="st0" d="M1.5,19.5c0-1.5,0.7-3.3,1.7-4.5c0.7-0.8,1-1.1,2.1-1.6c0,0.4-0.1,0.6-0.1,0.9c0,2.6,1.8,4.4,4.2,4.4
			c2.1,0,3.8-1.5,3.8-3.5c0-1.9-1.2-2.8-4.6-3.4C5.5,11.3,5,11.1,3.8,10C3,9.2,2.6,8.3,2.6,7.3c0-2.6,2.7-4.5,6.6-4.5
			c1.1,0,2,0.1,4,0.5c1.1,0.2,1.7,0.3,2.1,0.3c0.9,0,1.5-0.2,2.4-0.9c-0.1,2.5-1.2,4.1-2.6,4.1c-0.7,0-1.1-0.3-1.8-1.1
			C12,4.3,11.3,3.8,10,3.8c-1.6,0-2.7,0.8-2.7,2c0,0.7,0.4,1.4,1,1.7c0.5,0.3,1,0.5,1.6,0.6c0.3,0.1,1.2,0.3,2.4,0.6
			c2.1,0.5,3.1,0.9,4.1,1.7c1.1,1,1.7,2.4,1.7,3.9c0,3.4-3.1,5.6-7.9,5.6c-1.5,0-3.1-0.2-4.7-0.6c-0.5-0.1-0.8-0.2-1-0.2
			c-0.3,0-0.6-0.1-0.9-0.1c-0.8,0-1.4,0.3-2,0.9L1.5,19.5z"/>
		<path class="st0" d="M19.9,18.9c0.7-0.1,1-0.5,1-1.4v-0.4v-6v-0.3c0-0.6-0.3-1-1-1.4c1.2-0.8,2.9-1.4,4.2-1.4c0.1,0,0.2,0,0.4,0
			v8.9v0.4c0,0.8,0.3,1.2,1,1.4v0.6h-5.6V18.9z M20.6,5.2c0-1.1,0.9-2,2-2c1.1,0,2,0.8,2,2c0,1.1-0.9,2-2,2
			C21.5,7.1,20.6,6.2,20.6,5.2z"/>
		<path class="st0" d="M35,18.6c-1.2,0.8-2.1,1.1-3.4,1.1c-2.4,0-4-1.3-4-3.3c0-1.2,0.6-2.2,1.6-2.9c1.3-0.8,2.6-1.1,5.2-1.2l0.5,0
			v-1.4c0-1.4-0.4-2-1.2-2c-0.5,0-1.1,0.4-1.6,1.2l-0.5,0.7c-0.3,0.5-0.9,0.8-1.5,0.8c-1.3,0-2.1-1.1-2.1-2.6c0-0.4,0-0.6,0.1-1
			c0.7,0.5,1.1,0.6,1.8,0.6c0.6,0,1.1-0.1,2.2-0.3C33,8,33.4,7.9,34,7.9c2.9,0,4.4,1.5,4.4,4.4v0.3v3.6v0.2c0,1.3,0.4,2.2,1.3,3.1
			h-4.3C35.1,19.1,35.1,19,35,18.6z M34.9,13c-2.2,0.3-3.5,1.3-3.5,2.9c0,1.2,0.8,2,1.9,2c0.5,0,0.8-0.1,1.5-0.4V13z"/>
		<path class="st0" d="M41.6,18.8c0.8-0.1,1.1-0.5,1.1-1.7v-0.2V12v-0.3c0-0.9-0.3-1.4-1.1-1.9c1.4-0.9,3-1.5,4.6-1.6v2.6l4.2-2.7
			c1.6,0.5,2.6,1.3,3.3,2.6l4-2.6c2.5,0.6,4.1,2.8,4.1,5.8c0,1.6-0.5,3.2-1.6,4.5c-0.4,0.5-0.9,1-1.5,1.6c-1.5,1.4-1.9,2.2-1.9,3.3
			c0,0.2,0,0.3,0.1,0.7c-0.8-0.8-1.2-1.8-1.2-2.8c0-0.9,0.2-1.5,1.3-3.4c0.9-1.6,1.2-2.5,1.2-3.6c0-1.8-1.1-3.2-2.6-3.2
			c-0.6,0-1.3,0.2-1.9,0.6v5.1V17c0,1.3,0.2,1.7,1,1.8v0.6h-5.7v-0.6c0.8-0.2,1.1-0.6,1.1-1.6V17v-3.7V13c0-1.1-0.9-2-2-2
			c-0.6,0-1.2,0.2-2,0.7v5.1v0.4c0,1.1,0.2,1.5,1,1.7v0.6h-5.6V18.8z"/>
	</g>
	<g>
		<path class="st0" d="M69.3,12.6c0.1,0,0.3,0.1,0.6,0.4l0.5,0.5l0.3,0.3c0,0.1,0.1,0.1,0.1,0.2c0,0.1-0.1,0.3-0.4,0.5
			c-0.1,0.1-0.3,0.2-0.5,0.4c-0.3,0.3-0.5,0.4-0.6,0.4c-0.1,0-0.3-0.1-0.5-0.3c-0.2-0.3-0.4-0.5-0.6-0.6c-0.3-0.2-0.4-0.4-0.4-0.5
			c0-0.1,0.1-0.3,0.4-0.5c0.1-0.1,0.3-0.3,0.5-0.5C69,12.7,69.2,12.6,69.3,12.6z"/>
		<path class="st0" d="M79.7,8.1c0.5,0,1,0.1,1.5,0.3l0.6,0.2c0.3,0.1,0.4,0.1,0.5,0.1c0.1,0,0.2,0,0.2-0.1l0.3-0.1c0,0,0.1,0,0.1,0
			c0.1,0,0.2,0.1,0.2,0.3l0,0.6c0,0.1,0,0.2,0,0.3l0.1,0.8l0.1,0.7c0,0.1,0,0.1,0,0.2c0,0.2-0.1,0.3-0.2,0.3c-0.1,0-0.2-0.1-0.2-0.3
			c-0.2-0.7-0.6-1.4-1.2-1.9c-0.6-0.5-1.3-0.8-2.1-0.8c-0.5,0-0.9,0.2-1.3,0.5c-0.4,0.3-0.5,0.7-0.5,1.1c0,0.4,0.2,0.8,0.5,1.1
			c0.2,0.2,0.9,0.5,2,0.9c1.3,0.5,2.2,1,2.6,1.5c0.5,0.6,0.8,1.3,0.8,2.2c0,0.9-0.3,1.7-1,2.4c-0.7,0.7-1.5,1-2.4,1
			c-0.4,0-1-0.1-1.8-0.4c-0.4-0.1-0.7-0.2-0.9-0.2c-0.3-0.1-0.4-0.1-0.4-0.1c0,0-0.1-0.2-0.1-0.4c0-0.3-0.1-0.6-0.3-1.1
			c-0.2-0.7-0.3-1.2-0.3-1.4c0-0.3,0.1-0.4,0.3-0.4c0.1,0,0.1,0.1,0.2,0.2c0.3,0.9,0.7,1.7,1.4,2.3c0.7,0.6,1.4,0.9,2.1,0.9
			c0.6,0,1.1-0.2,1.5-0.6c0.4-0.4,0.7-0.9,0.7-1.4c0-0.4-0.1-0.8-0.3-1c-0.2-0.3-0.6-0.5-1.2-0.8l-1.3-0.5c-1.2-0.5-2-1-2.4-1.4
			c-0.4-0.5-0.6-1.1-0.6-1.8c0-0.9,0.3-1.6,0.9-2.2C78.1,8.4,78.8,8.1,79.7,8.1z"/>
		<path class="st0" d="M90.9,12.6c0.1,0,0.3,0.1,0.6,0.4l0.5,0.5l0.3,0.3c0,0.1,0.1,0.1,0.1,0.2c0,0.1-0.1,0.3-0.4,0.5
			c-0.1,0.1-0.3,0.2-0.5,0.4c-0.3,0.3-0.5,0.4-0.6,0.4c-0.1,0-0.3-0.1-0.5-0.3c-0.3-0.3-0.4-0.5-0.6-0.6c-0.3-0.2-0.4-0.4-0.4-0.5
			c0-0.1,0.1-0.3,0.4-0.5c0.1-0.1,0.3-0.3,0.5-0.5C90.5,12.7,90.7,12.6,90.9,12.6z"/>
		<path class="st0" d="M101.4,10.2v1.7c0,0.5,0,0.8,0.1,0.9c0.1,0.1,0.3,0.2,0.5,0.2l0.3,0l0.4,0h0.7c0.6,0,1-0.3,1.3-0.9l0.2-0.4
			c0.1-0.1,0.1-0.2,0.3-0.2c0.1,0,0.2,0.1,0.2,0.2c0,0,0,0.2,0,0.4c0,0.1,0,0.2,0,0.3c0,0.2,0,0.6,0.1,1.2c0,0.4,0.1,0.8,0.1,1.1
			l0,0.4c0,0.1,0,0.1,0,0.2c0,0-0.1,0.1-0.1,0.1c-0.1,0-0.2-0.1-0.3-0.3c-0.1-0.5-0.2-0.8-0.5-1c-0.1-0.1-0.3-0.2-0.5-0.2
			c-0.2,0-0.6-0.1-1.2-0.1h-0.6c-0.3,0-0.4,0-0.5,0.1c-0.1,0.1-0.2,0.2-0.2,0.5c0,0.3-0.1,0.7-0.1,1.2v0.7c0,0.7,0.1,1.3,0.2,1.6
			c0.1,0.2,0.2,0.4,0.3,0.5c0.1,0.1,0.3,0.1,0.6,0.1c2.3,0,3.7-0.6,4.4-2c0-0.1,0.1-0.1,0.1-0.1c0.1,0,0.1,0,0.2,0.1
			c0,0,0.1,0.1,0.1,0.1c0,0.5-0.1,1-0.4,1.5c-0.2,0.4-0.6,0.7-0.9,0.9c-0.4,0.2-0.9,0.3-1.5,0.3c-0.4,0-0.7,0-1.2-0.1l-1-0.1
			c-0.4,0-0.8,0-1.4,0c-0.4,0-1,0-1.8,0.1c-0.2,0-0.4,0-0.5,0c-0.1,0-0.2-0.1-0.2-0.2c0-0.1,0.1-0.2,0.2-0.2
			c0.3-0.1,0.5-0.2,0.7-0.4c0.1-0.1,0.2-0.4,0.3-0.7c0.1-0.3,0.1-0.7,0.1-1.1v-6.3c0-0.6-0.1-1-0.3-1.2c-0.2-0.2-0.6-0.4-1.3-0.5
			c-0.2,0-0.2-0.1-0.2-0.2c0-0.1,0.1-0.2,0.3-0.2c0,0,0.1,0,0.3,0c0.1,0,0.2,0,0.4,0l0.8,0l3.1,0c1.8,0,2.9,0,3.4-0.1
			c0,0,0.1,0,0.1,0c0.2,0,0.2,0.1,0.2,0.2c0,0.1,0,0.4,0,0.7c0.1,0.5,0.1,0.8,0.1,1c0,0.4-0.1,0.6-0.3,0.6c-0.1,0-0.2-0.1-0.2-0.4
			c0-0.5-0.2-0.9-0.6-1.1c-0.4-0.2-1-0.3-1.9-0.3h-1L101.8,9c-0.3,0.1-0.4,0.4-0.4,0.8L101.4,10.2z"/>
		<path class="st0" d="M114,12.6c0.1,0,0.3,0.1,0.6,0.4l0.5,0.5l0.3,0.3c0,0.1,0.1,0.1,0.1,0.2c0,0.1-0.1,0.3-0.4,0.5
			c-0.1,0.1-0.3,0.2-0.5,0.4c-0.3,0.3-0.5,0.4-0.6,0.4c-0.1,0-0.3-0.1-0.4-0.3c-0.3-0.3-0.5-0.5-0.6-0.6c-0.3-0.2-0.4-0.4-0.4-0.5
			c0-0.1,0.1-0.3,0.4-0.5c0.1-0.1,0.3-0.3,0.5-0.5C113.7,12.7,113.9,12.6,114,12.6z"/>
		<path class="st0" d="M127,9.2l3.8,8.3c0.2,0.4,0.4,0.7,0.7,0.9c0.3,0.2,0.6,0.4,1,0.4c0.1,0,0.1,0.1,0.1,0.2
			c0,0.1-0.1,0.2-0.2,0.2c-0.1,0-0.2,0-0.3,0c-0.4-0.1-1.1-0.1-2.1-0.1c-1,0-1.6,0-2,0.1c-0.1,0-0.2,0-0.2,0c-0.2,0-0.2-0.1-0.2-0.2
			c0-0.1,0.1-0.1,0.2-0.2c0.3-0.1,0.5-0.2,0.7-0.4c0.2-0.2,0.3-0.4,0.3-0.6c0-0.3-0.2-0.9-0.7-1.9c-0.1-0.3-0.3-0.5-0.5-0.5
			c-0.2,0-0.8-0.1-1.9-0.1h-1.1l-0.8,0.1c-0.2,0.1-0.4,0.4-0.7,1.1l-0.3,0.6c-0.1,0.2-0.1,0.4-0.1,0.5c0,0.7,0.5,1,1.5,1.2
			c0.2,0,0.3,0.1,0.3,0.2c0,0.2-0.1,0.2-0.3,0.2c-0.1,0-0.2,0-0.4-0.1c-0.4-0.1-0.7-0.1-1-0.1c-0.3,0-0.7,0-1.3,0.1
			c-0.4,0-0.7,0.1-0.8,0.1c-0.2,0-0.2-0.1-0.2-0.2c0-0.1,0.1-0.2,0.2-0.2c0.3-0.1,0.5-0.3,0.7-0.5c0.2-0.2,0.4-0.8,0.8-1.5l2.3-5
			c0.2-0.4,0.3-0.7,0.4-0.8l0.8-1.5l0.4-0.8v0c0.2-0.4,0.3-0.6,0.4-0.6c0.1,0,0.2,0.2,0.5,0.7L127,9.2z M127.3,14.2l-1.1-2.4
			c-0.3-0.6-0.5-0.9-0.6-0.9c-0.1,0-0.2,0.2-0.4,0.6l-0.1,0.3l-1,2.1l-0.1,0.2c0,0.1-0.1,0.1-0.1,0.2c0,0.2,0.2,0.3,0.6,0.3h2.4
			c0.2,0,0.3-0.1,0.3-0.2C127.4,14.4,127.4,14.3,127.3,14.2L127.3,14.2z"/>
		<path class="st0" d="M138.9,12.6c0.1,0,0.3,0.1,0.6,0.4l0.5,0.5l0.3,0.3c0.1,0.1,0.1,0.1,0.1,0.2c0,0.1-0.1,0.3-0.4,0.5
			c-0.1,0.1-0.3,0.2-0.5,0.4c-0.3,0.3-0.5,0.4-0.6,0.4c-0.1,0-0.3-0.1-0.4-0.3c-0.3-0.3-0.5-0.5-0.6-0.6c-0.3-0.2-0.4-0.4-0.4-0.5
			c0-0.1,0.1-0.3,0.4-0.5c0.1-0.1,0.3-0.3,0.5-0.5C138.6,12.7,138.8,12.6,138.9,12.6z"/>
		<path class="st0" d="M149.3,8.1c0.5,0,1,0.1,1.5,0.3l0.6,0.2c0.2,0.1,0.4,0.1,0.5,0.1c0.1,0,0.2,0,0.3-0.1l0.3-0.1
			c0.1,0,0.1,0,0.1,0c0.1,0,0.2,0.1,0.2,0.3l0,0.6c0,0.1,0,0.2,0,0.3l0.1,0.8l0.1,0.7c0,0.1,0,0.1,0,0.2c0,0.2-0.1,0.3-0.2,0.3
			c-0.1,0-0.2-0.1-0.2-0.3c-0.2-0.7-0.6-1.4-1.2-1.9c-0.7-0.5-1.3-0.8-2.1-0.8c-0.5,0-0.9,0.2-1.3,0.5c-0.4,0.3-0.6,0.7-0.6,1.1
			c0,0.4,0.2,0.8,0.5,1.1c0.2,0.2,0.9,0.5,2,0.9c1.3,0.5,2.2,1,2.6,1.5c0.5,0.6,0.8,1.3,0.8,2.2c0,0.9-0.3,1.7-1.1,2.4
			c-0.7,0.7-1.5,1-2.4,1c-0.4,0-1-0.1-1.8-0.4c-0.4-0.1-0.7-0.2-0.9-0.2c-0.3-0.1-0.4-0.1-0.4-0.1c0,0-0.1-0.2-0.1-0.4
			c0-0.3-0.1-0.6-0.2-1.1c-0.2-0.7-0.3-1.2-0.3-1.4c0-0.3,0.1-0.4,0.2-0.4c0.1,0,0.1,0.1,0.2,0.2c0.3,0.9,0.7,1.7,1.4,2.3
			c0.7,0.6,1.4,0.9,2.1,0.9c0.6,0,1.1-0.2,1.5-0.6c0.4-0.4,0.7-0.9,0.7-1.4c0-0.4-0.1-0.8-0.3-1c-0.2-0.3-0.6-0.5-1.2-0.8l-1.3-0.5
			c-1.2-0.5-2-1-2.4-1.4c-0.4-0.5-0.6-1.1-0.6-1.8c0-0.9,0.3-1.6,0.9-2.2C147.7,8.4,148.4,8.1,149.3,8.1z"/>
		<path class="st0" d="M160.5,12.6c0.1,0,0.3,0.1,0.6,0.4l0.5,0.5l0.3,0.3c0.1,0.1,0.1,0.1,0.1,0.2c0,0.1-0.1,0.3-0.4,0.5
			c-0.1,0.1-0.3,0.2-0.5,0.4c-0.3,0.3-0.5,0.4-0.6,0.4c-0.1,0-0.3-0.1-0.4-0.3c-0.3-0.3-0.4-0.5-0.6-0.6c-0.3-0.2-0.4-0.4-0.4-0.5
			c0-0.1,0.1-0.3,0.4-0.5c0.1-0.1,0.3-0.3,0.5-0.5C160.2,12.7,160.3,12.6,160.5,12.6z"/>
	</g>
</g>
</svg>
